<?xml version="1.0" encoding="UTF-8"?>
<svg id="Layer_1" data-name="Layer 1" xmlns="http://www.w3.org/2000/svg" viewBox="0 0 2730.91 3000">
  <defs>
    <style>
      .cls-1 {
        fill: #fff;
      }
    </style>
  </defs>
  <path class="cls-1" d="M2524.51,1024.5c-39.42,62.27-117.32,91.55-184.56,112.01-86.53,26.32-175.4,43.49-265.85,48.12-58.6,3-117.51,1.18-175.83-5.49-20.09-2.31-48.09-13.86-54.27,12.59-3.83,16.38,9.52,38.04,16.36,52.11,31.28,64.32,179.66,370.34,112.37,563.46-17.83,51.37-41.23,66.41-64.84,148.56-17.46,60.47-15.38,88.98-41.26,141.06-.68,1.55-1.55,3.13-2.26,4.7-13.8,27.42-33.21,64.13-70.07,91.4-46.33,34.26-101.02,39.15-141.06,36.54-23.78-1.57-42.28-5.78-51.2-7.86,25.16,112.91,45.78,261.62,37.4,435.34-3.64,74.3-24.27,199.27-33.4,253.12-2.5,14.73-15.43,25.3-30.36,24.84-326.28-9.57-652.1.45-978.45,6.34-11.41.22-30.34-1.7-34.2-15.02-2.16-7.35,2.18-15.19,7.77-20.45,47.41-44.54,116.33-60,179.25-64.23,63.37-4.26,127.15,1.44,190.39-4.6,141.59-13.5,280.04-85.38,419.77-58.64,22.88,4.39,52.3,8.75,64.32-11.17,5.07-8.39,5.05-18.77,4.89-28.58-1.21-70.6,7.47-147.58-1.62-217.21-3.92-29.95-17.51-57.71-32.66-83.82-14.59-25.11-39.71-64.95-73.77-62.14-38.29,3.16-59.11,64.6-69.57,94.32-8.95,25.37-18.3,50.72-30.27,74.85-12.59,25.45-29.45,43.65-46.25,65.19-6.2,7.94-9.44,16.08-20.19,18.88-11.28,2.87-24.14.24-32.34-8.26-2.94-3.03-5.2-6.62-8.07-9.73-8.43-9.15-17.67-5.49-27.31-.53-5.39,3.16-12.25,6.34-16.91.25-2.9-3.82-2.45-9.97-5.9-13.33-5.94-5.86-12.02,2.75-16.2,6.59-3.96,3.66-9.99,5.31-13.62.32-2.41-3.37-2.9-7.73-5.36-11.09-4.31-5.92-12.99-6.13-18.57-1.95-5.92,4.4-5.89,11.07-10.1,16.54-14.4,18.77-38.41.37-45.56-14.95-8.51-18.2-12.96-37.79-22.3-55.77-.34-.66-.68-1.35-1.31-2-32.71-34.15-89.13-41.25-128.08-72.46-55.05-44.12-93.36-103.99-96.75-176.16-6.16-130.36,115.44-253.17,239.95-274.21,126.19-21.32,196.1,71.31,275.27,31.81,86.11-42.93,113.77-224.46,153.92-307.21,53.69-110.59,193.57-275.1,68.7-377.31-43.33-35.46-261.25-75.78-261.25-144.97-23.48-36.03-39.39-76.6-63.07-112.46-49.75-75.24-130-124.52-211.22-163.73-66.49-32.08-235.16-181.61-289.9-87.66-28.38,48.72-.61,180.43-11.54,241.14-15.1,83.8-44.17,165.12-86.4,239.08-38.66,67.68-88.62,151.27-45.44,216.18,11.62,17.49,29.13,30.96,38.13,49.94,27.84,58.87-37.37,115.69-86.11,158.84-58.06,51.37-102.68,117.8-128.28,190.94-11.07,31.68-29.04,72.12-62.39,68.49-33.55-3.66-42.39-48.04-41.12-81.74,11.09-299.58,124.29-588.09,137.72-887.58,6.81-151.97-10.01-314.2,64.63-446.75,18.41-32.68,43.07-63.34,76.59-80.11,35.26-17.65,76.35-18.22,115.77-16.8,167.01,6.02,333.69,40.7,487.84,105.65,146.32,61.6,276.18,144.22,433.92,177.53,184.02,38.81,358.11,30.24,363,3.16,2.78-14.88-48.25-18.88-106.81-78.67-49.27-50.51-51.53-87.21-97.34-104.85-16.77-6.62-39.15-5.76-83.19-3.84-107.99,4.7-129.86,22.53-148.9,6.66-22.72-18.96-5.97-59.11-2.02-82.75,6.34-38.28,4.68-76.72-14.88-111.26-14.88-26.27-37.86-46.75-57.51-69.66-36.49-42.62-61.76-94.76-72.62-149.82-4.67-23.77-4.96-52.48,14.05-67.47,14.67-11.56,36.36-10.23,52.98-1.7,33.31,17.06,66.05,51.24,96.49,74.04,36.71,27.51,73.38,55.08,110.17,82.51,74.48,55.55,149.39,110.62,225.75,163.62,151.29,105.07,308.81,203.11,477.88,277.13,29.79,13.04,59.92,25.33,90.39,36.71,90.95,33.94,238.43,148.93,164.65,265.48"/>
</svg>