<?xml version="1.0" encoding="UTF-8"?>
<svg id="Layer_1" xmlns="http://www.w3.org/2000/svg" version="1.1" viewBox="0 0 2000 2000">
  <!-- Generator: Adobe Illustrator 29.6.1, SVG Export Plug-In . SVG Version: 2.1.1 Build 9)  -->
  <defs>
    <style>
      .st0 {
        fill: #fff;
      }
    </style>
  </defs>
  <path class="st0" d="M1247.3,1005.1c-12.6-4.2-24.8-3.1-36.5,3.2-11.7,6.3-18.7,16.5-23,30.4-4.8-18.7-15.6-30.2-32.6-37.1,17.4-6.9,27.9-18.8,32.3-36.1,15.4,29.3,32.1,39.5,55.5,34.1,19.9-4.6,34.5-22.8,34.8-43.5.4-20.4-13.7-38.9-33.7-44.3-10-2.7-19.8-1.9-29.3,2.1-14.1,6-22.4,17.2-27.1,32.8-5.1-20.1-17.1-32.3-35.9-38.4,25.3-10.4,37.1-28.6,34.1-51.5-2.8-21.2-18.9-37-40.4-39.8-22.3-2.9-40.6,9.2-50.8,34.2-6.1-18.8-18.2-30.8-36.2-35.4,6.4-3.9,14.1-7.1,19.6-12.5,5.3-5.2,10-12.3,12.2-19.5,2.2-7.4,2.5-16,1.1-23.6-3.6-19.5-21.2-33.7-41.7-35-21.8-1.4-37.7,11.5-47.5,38.7-12.9-29.5-27.7-41-49.5-38.7-20.4,2.2-36.7,16.5-40.5,35.8-4.7,23.5,4.3,38.2,33.5,54.4-18.6,6.3-21.4,8.9-36.6,33.8-11.4-23.9-29-35.4-49.7-32.8-21,2.7-36.9,17.4-41.1,37.1-2.5,11.9-.2,22.9,5.6,33.2,5.9,10.3,15,16.9,25,20.5-6.6,4.6-14.1,8.4-19.7,14.1-5.7,5.8-9.3,13.5-13.6,20.1-14.5-25.4-30.7-35.2-52-31-20.1,4-34.9,19.4-37.3,39.2-1.5,11.9,1.4,22.8,8.4,32.6,6.9,9.7,16.6,15.2,28.6,18.4-28.1,12.2-38.4,26.1-37.3,49.3.9,18,13.4,34.9,31.3,40,28.2,7.9,47.2-4.2,59.1-30.5,5.4,17.3,16.5,28.2,33,34.5-19,7.5-29.4,20.8-32.8,41.3-5.5-27.1-24.1-42.5-48.5-40.8-22.4,1.6-40,19.4-41.3,42-1.3,22.5,14.2,42.9,36.1,46.5,6.1,1,12.7.8,18.7-.5,5.8-1.3,11.6-4,16.3-7.5,4.9-3.7,9.2-8.7,12.4-14,3.1-5,4.4-11.1,6.4-16.4,4.3,23.5,18.6,37.6,42.7,41.9-27.8,6.4-42.3,24.8-40,50.2,2,21.7,20.6,38.8,42.9,39.6,23.8.9,42.1-15.3,46.4-41,6.9,26.6,21.6,40.8,43,41.9,21.1,1,39.4-10.7,46.3-30,4.4-12.3,3.7-24.3-2-36-5.8-11.8-15.6-19.3-27-23.5,6.6-4.2,13.6-7.5,19.1-12.5,5.4-4.9,9.3-11.6,13.9-17.6,6.1,14.3,17.2,24.1,33,29.1-26.3,13.8-36.9,31.3-32.5,53,4,20.2,20.4,35.5,39.9,37.3,21,2,40.3-9.5,47.7-28.7,4.8-12.6,4.3-25.1-1.6-37.2-5.9-12-15.9-19.4-29.2-24.3,18.4-5.7,29.6-17,35.6-33.9,11.1,23.4,29,35.3,49.1,32.9,21.3-2.5,37.7-17,41.8-37.1,4.7-22.8-4.4-39.3-30-54.4,20-10.7,24.8-16.1,31.9-35.5,15.3,28.8,31.3,38.5,55,33.3,19.4-4.3,33.9-21.5,35.2-41.8,1.3-19.7-11.6-38.8-30.6-45.2h0ZM816,1034.5c-6.6-17.9-18.1-28.7-35.7-33.4,17.6-5,29.5-15.8,35.8-34.2,4.9,16,13.9,26.8,29.2,34-14.9,7.1-24.1,17.7-29.2,33.6h0ZM909.2,875.1c4.9,14.3,12.8,24.5,23.9,30.4-8.7,8.5-17.4,17-26.4,25.8-5.9-10.7-15.7-18.6-29.6-23.3,16-5.9,26.5-16.1,32-32.9h0ZM906.5,1071.6c8.3,8.4,16.2,16.4,23.2,23.5-6.9,7.9-14.5,16.6-22.1,25.2-5.2-11.7-14.6-21-29.1-26.4,12.8-4.8,22.4-12.3,28.1-22.4h0ZM885.7,1001c7.2-6.7,15.1-14.1,22.5-21,5.7,6.5,12.1,13.7,18.1,20.5-6.1,6.7-12.8,14.1-18.6,20.6-7.2-6.5-15-13.7-22-20.1h0ZM909.1,1228.8c-4.5-24.7-17.2-37.7-38.5-41.6,6.7-3.2,15.2-5.8,21.9-10.8,6.6-5,11.4-12.6,16.9-18.9,5.9,14.2,16.7,24.2,33.5,29.6-19.8,7.5-30.9,21-33.8,41.8h0ZM1001.4,1119c-6.1-7.1-13.2-15.5-19.9-23.3,6.4-5.6,13.7-11.9,20.7-18.1,6.5,5.9,13.5,12.3,19.7,17.9-6.8,7.8-14.1,16.1-20.5,23.4h0ZM988.8,999.9c3.9-3.7,9.8-9.3,14.1-13.2,4.1,4.4,9.8,10.8,15.4,16.8-3.4,3.2-9.4,8.7-13.9,12.9-5.4-5.8-11.1-11.8-15.5-16.5h0ZM1002.3,926.3c-7-6.3-14.8-13.2-21.8-19.5,7-7.6,14.8-16.1,21.6-23.5,6.9,7.4,14.8,15.9,22.2,23.9-6.6,5.7-14.6,12.6-21.9,19.1ZM1002.2,846c-7.4-16.1-18.7-26.2-36.4-30.7,20.3-6.1,32-18.9,36.3-38.6,4.4,20,16.3,32.6,36.7,38.7-17.7,4.4-29.3,14.2-36.7,30.6h0ZM1095.5,1124.7c-3.2-5.4-5.9-11.2-9.7-16-3.9-4.8-8.9-8.7-13.4-12.9,4.6-3.8,9.7-7.3,13.8-11.6,4-4.1,7-9.2,10.6-14.1,6.3,11.4,15.4,19.5,28.8,24.2-15,6.1-25.1,15.9-30.1,30.4h0ZM1075.8,1001.3c6.5-7.3,14-15.6,21.3-23.8,5.4,10.8,14.8,18.9,28.1,24.1-13.1,4.9-22.3,13-27.9,23.3-7.4-8.1-14.7-16.1-21.5-23.6h0ZM1096.2,935.1c-6-13-15.3-22.1-28.2-28.2,13.9-7,22.2-17.7,26.9-32.6,5.7,17.5,16.4,28.3,34.1,34-15.5,4.9-25.8,13.2-32.8,26.8h0Z"/>
  <path class="st0" d="M771.3,907.5c24.9,0,44.7-19.6,44.7-44.4,0-24.9-19.7-44.6-44.6-44.5-24.6,0-44.2,19.6-44.4,44.1-.1,24.9,19.4,44.8,44.3,44.8h0Z"/>
  <path class="st0" d="M1139.6,1187.1c-24.5.2-44,19.9-44,44.5s19.7,44.6,44.6,44.5c24.9,0,44.5-19.9,44.3-44.8-.1-24.8-20-44.3-45-44.2h0Z"/>
  <path class="st0" d="M1232.6,1094.8c-24.8,0-44.5,19.8-44.4,44.7,0,24.5,19.8,44.1,44.4,44.1,24.8,0,44.5-19.8,44.4-44.7-.1-24.5-19.8-44.1-44.4-44.1h0Z"/>
  <path class="st0" d="M863.8,814.8c24.5,0,44.4-19.6,44.5-44,.1-24.6-19.4-44.5-43.8-44.7-24.6-.2-44.6,19.3-44.8,43.7-.2,24.9,19.4,44.9,44.2,45h0Z"/>
  <path class="st0" d="M1232.1,907.2c24.3.2,44.5-19.6,44.7-43.9.2-24.3-19.7-44.4-44-44.5-24.3,0-44.3,19.9-44.3,44.2s19.7,44,43.7,44.2h0Z"/>
  <path class="st0" d="M1140.1,814.7c24.3,0,44.3-20.1,44.2-44.4,0-24.3-20.2-44.2-44.5-44-24,.2-43.8,20-43.8,44.1,0,24.3,19.9,44.3,44.2,44.3h0Z"/>
  <path class="st0" d="M679.2,912.5c-23.8,0-43.1,19.1-43.2,42.8,0,23.8,19.1,43.1,42.8,43.2,23.8,0,43.1-19.1,43.2-42.8,0-23.8-19.1-43.1-42.8-43.2h0Z"/>
  <path class="st0" d="M771.7,1188.6c-23.9,0-43.2,18.9-43.3,42.7-.1,23.9,18.8,43.3,42.5,43.5,24.2.2,43.6-18.9,43.6-43,0-23.9-19-43-42.9-43.1Z"/>
  <path class="st0" d="M678.8,1003.6c-23.7,0-42.9,19.4-42.8,43.2,0,23.7,19.4,42.9,43.2,42.8,23.7,0,42.9-19.4,42.8-43.2,0-23.8-19.4-42.9-43.2-42.9h0Z"/>
  <path class="st0" d="M955.3,1281c-23.9,0-43.1,18.9-43.3,42.8-.1,24.2,19.1,43.5,43.2,43.4,23.8,0,42.9-19.2,42.9-43,0-23.9-19.1-43-42.9-43.1h0Z"/>
  <path class="st0" d="M1047.8,1281.1c-23.8,0-43.1,19-43.2,42.8,0,23.8,19,43.1,42.8,43.2,23.8,0,43.1-19.1,43.2-42.8,0-23.8-19-43.1-42.8-43.2h0Z"/>
  <path class="st0" d="M1232.8,1188.8c-23.3-.1-42.8,19-43.1,42.3-.3,23.6,19,43.3,42.6,43.4,23.3.1,42.8-19,43.1-42.3.3-23.6-19-43.3-42.6-43.4Z"/>
  <path class="st0" d="M771.4,813.4c23.6,0,43.1-19.5,42.9-43.1-.1-23.4-19.4-42.6-42.8-42.6-23.6,0-43.1,19.5-42.9,43.1.1,23.3,19.4,42.6,42.8,42.6Z"/>
  <path class="st0" d="M1323.8,1005.2c-23.3,0-42.7,19.3-42.8,42.6-.1,23.5,19.5,43.1,43.1,42.9,23.3-.2,42.5-19.6,42.5-42.9,0-23.3-19.4-42.6-42.7-42.6Z"/>
  <path class="st0" d="M1323.5,998.1c23.3.2,42.8-19.2,42.9-42.6,0-23.3-19.4-42.8-42.8-42.7-23.4,0-42.7,19.6-42.5,42.9.2,23.2,19.2,42.2,42.4,42.4h0Z"/>
  <path class="st0" d="M1046.5,721.9c23.1.9,43-18.1,43.7-41.7.7-23.1-18.3-42.9-41.9-43.6-22.9-.6-42.3,17.9-43.4,41.4-1,23,17.9,43,41.5,43.8Z"/>
  <path class="st0" d="M955.5,722c23.1.8,42.9-18.3,43.6-41.9.6-23.1-18.5-42.9-42-43.4-22.9-.5-42.3,18.1-43.2,41.5-.9,23.1,18.1,43,41.7,43.7h0Z"/>
  <path class="st0" d="M1232.6,813c23.2,0,42.2-18.9,42.4-42.2.2-23.4-19.1-42.8-42.5-42.8-23.2,0-42.2,18.9-42.4,42.2-.2,23.3,19.1,42.8,42.5,42.8Z"/>
  <path class="st0" d="M864.1,1281.6c-23.4-.1-42.8,19.3-42.6,42.7.2,23.2,19.1,42.2,42.3,42.3,23.4,0,42.8-19.3,42.6-42.7-.2-23.3-19.1-42.2-42.3-42.3Z"/>
  <path class="st0" d="M679,1096.9c-23.4,0-42.1,18.7-42.2,42.1-.1,23.6,19,42.6,42.6,42.4,23.4-.2,42-19.1,41.9-42.4-.1-23.4-18.9-42.1-42.3-42.1h0Z"/>
  <path class="st0" d="M1140.6,1282.1c-23.5-.3-42.4,18.2-42.6,41.7-.2,23.5,18.3,42.3,41.8,42.4,23.5.1,42.2-18.5,42.3-42,0-23.3-18.3-41.8-41.5-42.1Z"/>
  <path class="st0" d="M678.9,905.1c23.5,0,42.2-18.6,42.1-42.1,0-23.5-18.8-42.1-42.3-42-23.5.1-42,18.9-41.8,42.4.2,23.3,18.7,41.6,42,41.7h0Z"/>
  <path class="st0" d="M1324,1097.3c-23.5-.1-42.2,18.5-42.1,42,0,23.2,18.7,41.6,41.9,41.6,23.2,0,41.7-18.5,41.8-41.7,0-23.2-18.4-41.8-41.6-41.9Z"/>
  <path class="st0" d="M864.1,721.2c23.2,0,41.6-18.6,41.6-41.9,0-23.2-18.5-41.7-41.7-41.8-23.3,0-41.8,18.4-41.9,41.5-.1,23.6,18.5,42.2,42,42.1h0Z"/>
  <path class="st0" d="M1323.7,904.7c23,0,41.8-18.7,41.7-41.8,0-23-18.9-41.7-41.9-41.6-22.7.1-41.3,18.7-41.4,41.4-.1,23.1,18.6,41.9,41.6,41.9h0Z"/>
  <path class="st0" d="M1140.2,721c23,0,41.7-18.9,41.5-42-.1-23-19.1-41.6-42.2-41.3-22.7.2-41.2,18.9-41.2,41.7,0,23.1,18.7,41.8,41.8,41.7h0Z"/>
  <path class="st0" d="M678.9,1190.8c-22.8,0-40.8,18.2-40.7,41.1.1,22.8,18.4,40.7,41.2,40.5,22.5-.2,40.3-18.2,40.3-40.7,0-22.8-18.1-40.9-40.9-40.8h0Z"/>
  <path class="st0" d="M771.4,1283.3c-22.5,0-40.5,17.8-40.7,40.3-.2,22.8,17.7,41.1,40.5,41.2,22.8.1,41-17.9,41.1-40.7,0-22.8-18-40.9-40.8-40.9h0Z"/>
  <path class="st0" d="M1232.8,1283.6c-22.6-.1-40.6,17.7-40.8,40.1-.2,22.9,17.8,41,40.6,41,22.5,0,40.4-17.9,40.5-40.4,0-22.5-17.8-40.5-40.3-40.6h0Z"/>
  <path class="st0" d="M678.7,811c22.6.1,40.6-17.7,40.8-40.1.1-22.6-17.5-40.7-39.9-41-22.6-.2-40.8,17.4-41.1,39.8-.3,22.9,17.5,41.2,40.3,41.3h0Z"/>
  <path class="st0" d="M1323.8,1191.2c-22.5,0-40.5,17.9-40.5,40.3,0,22.5,17.9,40.5,40.3,40.6,22.5,0,40.5-17.9,40.6-40.4,0-22.5-17.9-40.5-40.4-40.5h0Z"/>
  <path class="st0" d="M770.9,719.8c22.5.2,40.8-17.6,41-39.9.2-22.6-17.6-40.8-39.9-41-22.5-.2-40.8,17.6-41,39.9-.2,22.5,17.6,40.8,39.9,41Z"/>
  <path class="st0" d="M588.2,1006.4c-22.3-.2-40.8,18.1-40.7,40.4,0,22,18.2,40.2,40.2,40.2,22,0,40.3-18,40.4-40,.1-22.1-17.8-40.4-39.9-40.6h0Z"/>
  <path class="st0" d="M1231.9,719.6c22.3.4,40.9-17.8,41-40,.1-22-17.9-40.3-39.9-40.5-22-.2-40.4,17.7-40.7,39.7-.3,22,17.6,40.5,39.6,40.8h0Z"/>
  <path class="st0" d="M955.4,1375c-22-.1-40.3,17.8-40.6,39.9-.2,22.3,18,40.7,40.3,40.7,22,0,40.2-18.1,40.3-40.2,0-22-18-40.3-40-40.4h0Z"/>
  <path class="st0" d="M1323.7,810.8c22,0,40.2-18,40.4-40,.1-22-17.8-40.3-39.9-40.5-22.1-.2-40.4,17.7-40.7,39.7-.3,22.3,17.9,40.8,40.2,40.9h0Z"/>
  <path class="st0" d="M1047.7,1375.1c-21.9,0-40.2,18.1-40.3,40.1,0,21.9,18.1,40.2,40.1,40.3,21.9,0,40.2-18.1,40.3-40.1,0-21.9-18.1-40.2-40.1-40.3Z"/>
  <path class="st0" d="M588,995.7c22-.1,40.2-18.4,40.1-40.3,0-22-18.4-40.1-40.3-40.1-22,.1-40.2,18.4-40.1,40.4,0,21.9,18.4,40.1,40.3,40.1h0Z"/>
  <path class="st0" d="M1416.2,1008.3c-22,0-39.7,17.8-39.6,39.8,0,22,17.8,39.6,39.7,39.6,22,0,39.6-17.8,39.6-39.8,0-22-17.7-39.6-39.7-39.6h0Z"/>
  <path class="st0" d="M1415.6,994.9c22.2.3,39.9-17,40.1-39.2.2-21.9-17-39.4-38.8-39.8-22.1-.3-39.9,17.1-40.1,39.2-.2,21.9,17,39.4,38.8,39.8Z"/>
  <path class="st0" d="M588.3,1099.7c-22.2-.2-39.9,17.2-39.9,39.3,0,21.9,17.2,39.4,39,39.6,22.2.2,39.9-17.2,39.9-39.4,0-21.9-17.2-39.4-39-39.6h0Z"/>
  <path class="st0" d="M956.4,626.3c21.9,0,39.3-17.2,39.5-39.1.2-22.2-17.3-39.8-39.4-39.8s-39.3,17.2-39.5,39.1c-.2,22.2,17.3,39.8,39.4,39.8Z"/>
  <path class="st0" d="M1047.8,626.3c21.9,0,39.2-17.4,39.3-39.3,0-22.2-17.5-39.7-39.6-39.6-21.9,0-39.2,17.4-39.3,39.3,0,22.2,17.5,39.7,39.6,39.6Z"/>
  <path class="st0" d="M865.2,1375.8c-22.2-.6-40.2,16.4-40.7,38.5-.5,21.9,16.4,39.8,38.2,40.4,22.2.6,40.2-16.4,40.7-38.5.5-21.9-16.4-39.7-38.2-40.4Z"/>
  <path class="st0" d="M1140.6,1376c-22-.2-39.6,16.9-39.8,38.7-.3,22.3,17,39.9,39.1,40,21.9,0,39.4-17.1,39.5-39,.1-22-17-39.5-38.8-39.7Z"/>
  <path class="st0" d="M587.4,902.2c21.9.1,39.5-17,39.7-38.8.2-21.9-17-39.5-38.8-39.7-21.9-.2-39.5,17-39.7,38.7-.1,21.9,17,39.5,38.8,39.7h0Z"/>
  <path class="st0" d="M863.7,625.9c21.4.1,39-17.2,39.3-38.5.2-21.7-17.2-39.5-38.8-39.6-21.4-.1-39,17.2-39.3,38.5-.2,21.7,17.2,39.5,38.8,39.6h0Z"/>
  <path class="st0" d="M1416.5,1100.1c-21.4-.1-39.1,17.1-39.4,38.4-.3,21.7,17.1,39.6,38.7,39.7,21.4.1,39.1-17.1,39.4-38.4.3-21.7-17.1-39.5-38.7-39.7h0Z"/>
  <path class="st0" d="M678.9,1285.1c-21.3,0-38.9,17.7-38.9,39.1,0,21.3,17.7,38.9,39,38.9,21.3,0,38.9-17.7,38.9-39s-17.7-38.9-39-38.9Z"/>
  <path class="st0" d="M1140.3,625.8c21.3-.1,38.9-17.8,38.8-39.1-.1-21.3-17.8-38.9-39.2-38.8s-38.9,17.8-38.8,39.1c.1,21.3,17.8,38.9,39.2,38.8Z"/>
  <path class="st0" d="M1415.9,902c21.4.1,39.1-17.3,39.3-38.7.1-21.3-17.3-39.1-38.7-39.2-21.3-.2-39.1,17.3-39.2,38.7-.2,21.4,17.3,39.1,38.7,39.3Z"/>
  <path class="st0" d="M1323.9,1285.4c-21.3,0-39.2,17.9-38.8,39.1.3,21.2,17.9,38.5,38.9,38.3,21.1-.1,38.5-17.7,38.5-38.8,0-21.1-17.5-38.6-38.6-38.7h0Z"/>
  <path class="st0" d="M678,717.9c20.9.8,38.7-16.1,39.5-37.6.8-20.9-16.1-38.7-37.5-39.5-20.9-.8-38.7,16.1-39.5,37.6-.8,20.9,16.1,38.7,37.5,39.5h0Z"/>
  <path class="st0" d="M588.6,1193.3c-21.1-.5-38.3,15.9-39,37-.7,21.3,15.8,38.8,37.2,39.5,21.3.6,38.8-16,39.3-37.3.5-21.3-16.1-38.7-37.5-39.2Z"/>
  <path class="st0" d="M771.3,1377c-21.4,0-38.3,17.2-38.1,38.6.2,21.4,17.4,38.2,38.7,38,21.1-.2,37.8-17.1,37.8-38.2,0-21.3-17.1-38.4-38.4-38.3h0Z"/>
  <path class="st0" d="M1323.5,717.4c21.5.1,38.5-16.8,38.4-38.3-.1-21.2-16.9-37.9-38.1-37.9-21.2,0-38,16.8-38.1,38,0,21.2,16.6,38.1,37.8,38.2Z"/>
  <path class="st0" d="M1232.4,1377.3c-21.2,0-37.8,16.9-37.8,38.1,0,21.2,16.9,37.8,38.2,37.8,21.2,0,37.8-16.9,37.8-38.1,0-21.2-16.9-37.8-38.1-37.8h0Z"/>
  <path class="st0" d="M588,808.5c21.2-.1,37.8-17,37.7-38.2,0-21.2-16.9-37.8-38.2-37.7-21.2,0-37.8,16.9-37.7,38.2,0,21.2,16.9,37.8,38.2,37.7Z"/>
  <path class="st0" d="M1416.4,1193.8c-20.8,0-37.8,16.7-37.9,37.5-.1,21.1,16.9,38.1,37.9,38.1,20.8,0,37.6-17,37.6-37.8,0-20.8-16.9-37.7-37.6-37.7Z"/>
  <path class="st0" d="M771.7,624.6c20.8,0,37.6-17,37.6-37.8,0-20.8-16.9-37.7-37.7-37.7-20.8,0-37.8,16.7-37.9,37.5-.1,21.1,16.9,38.1,38,38.1h0Z"/>
  <path class="st0" d="M1232.5,624.5c20.6,0,37.7-17.1,37.7-37.6,0-20.6-17.2-37.7-37.8-37.6-20.3.1-37.2,16.9-37.4,37.3-.2,20.6,16.9,37.8,37.5,37.9h0Z"/>
  <path class="st0" d="M1415.7,808.1c20.6.4,37.9-16.6,38.2-37.2.2-20.6-16.7-37.9-37.4-38-20.6-.1-37.8,16.9-37.8,37.5,0,20.4,16.7,37.3,37,37.7h0Z"/>
  <path class="st0" d="M954.8,1470.7c-20.5.2-36.7,16.6-36.7,37,0,20.7,16.7,37.2,37.3,37.1,20.5-.2,36.7-16.6,36.7-37,0-20.7-16.7-37.3-37.3-37.1Z"/>
  <path class="st0" d="M495.8,1009.8c-20.8-.2-37.3,16.1-37.3,36.8,0,20.5,16.2,36.7,36.7,36.8,20.5,0,36.8-16,37-36.5.2-20.5-15.9-36.9-36.3-37.1h0Z"/>
  <path class="st0" d="M495.5,918.6c-20.8,0-37.1,16.4-36.9,37.2.2,20.5,16.5,36.6,37,36.5,20.5,0,36.6-16.3,36.6-36.9,0-20.5-16.2-36.7-36.7-36.8h0Z"/>
  <path class="st0" d="M1048,1470.9c-20.5-.2-37,15.8-37.3,36.2-.3,20.8,15.9,37.4,36.7,37.4,20.5,0,36.8-16,36.9-36.5.2-20.5-15.9-36.9-36.4-37.1h0Z"/>
  <path class="st0" d="M864.3,1471.3c-20.2-.1-36.6,16-36.8,36-.2,20.5,16.1,37,36.5,37s36.4-16.2,36.5-36.3c0-20.1-16.1-36.5-36.2-36.6h0Z"/>
  <path class="st0" d="M1509,1011.5c-20.4-.1-36.9,16.3-36.8,36.7,0,20.1,16.4,36.3,36.5,36.3s36.4-16.3,36.5-36.4c0-20.1-16.1-36.5-36.2-36.6h0Z"/>
  <path class="st0" d="M495.3,1102.6c-20.1,0-36.4,16.2-36.5,36.3,0,20.1,16.1,36.5,36.1,36.6,20.4.1,36.9-16.2,36.8-36.6,0-20.1-16.4-36.3-36.5-36.3h0Z"/>
  <path class="st0" d="M588.2,1287.6c-20.2-.1-36.7,15.9-36.9,35.9-.2,20.5,16,37,36.4,37,20.1,0,36.5-16.2,36.6-36.3,0-20.2-16-36.6-36.1-36.7h0Z"/>
  <path class="st0" d="M680.2,1378.8c-20.6-.5-37.4,15.5-37.7,35.7-.3,20.2,15.6,36.9,35.6,37.2,20.2.4,37-15.5,37.4-35.4.4-20.3-15.4-37.1-35.2-37.6Z"/>
  <path class="st0" d="M1139.9,1471.3c-20,.1-36.3,16.6-36.2,36.6.1,20,16.6,36.3,36.6,36.2,20-.1,36.3-16.6,36.2-36.6,0-20-16.6-36.3-36.6-36.2Z"/>
  <path class="st0" d="M1508.8,991.9c20,0,36.4-16.5,36.3-36.5,0-20-16.5-36.4-36.5-36.3-20,0-36.4,16.5-36.3,36.5,0,20,16.5,36.4,36.5,36.3h0Z"/>
  <path class="st0" d="M1046.7,530.8c20,.5,36.9-15.6,37.3-35.5.5-20-15.6-36.8-35.5-37.3-20-.4-36.9,15.6-37.3,35.5-.5,20,15.6,36.9,35.5,37.3Z"/>
  <path class="st0" d="M956.5,530.8c20,0,36.4-16.4,36.4-36.4,0-20-16.4-36.4-36.4-36.4-20,0-36.4,16.5-36.4,36.5,0,20,16.4,36.4,36.4,36.4Z"/>
  <path class="st0" d="M1324.5,1379c-19.9-.5-36.8,15.9-37.1,35.8-.3,19.7,15.8,36.3,35.5,36.7,19.9.5,36.8-15.9,37.1-35.8.3-19.7-15.8-36.3-35.5-36.7Z"/>
  <path class="st0" d="M494.6,899.3c19.9.5,36.8-15.9,37.1-35.9.3-19.6-15.8-36.3-35.5-36.7-19.9-.5-36.8,15.9-37.1,35.9-.3,19.6,15.8,36.3,35.5,36.7Z"/>
  <path class="st0" d="M679.1,623c19.7,0,36-16.5,36.1-36.1,0-19.6-16.3-36.1-36-36.2-19.6-.2-36.1,16.1-36.4,35.8-.3,19.8,16.4,36.6,36.3,36.6h0Z"/>
  <path class="st0" d="M1416.4,1287.9c-19.6-.2-36.1,16.1-36.4,35.8-.3,19.8,16.4,36.6,36.3,36.5,19.7-.1,36-16.5,36.1-36.1,0-19.6-16.3-36.1-36-36.2Z"/>
  <path class="st0" d="M587.5,715.5c19.6.2,36.1-16,36.5-35.7.4-19.5-15.8-36.1-35.5-36.6-19.8-.5-36.7,16.1-36.8,36-.1,19.6,16.1,36.1,35.9,36.3h0Z"/>
  <path class="st0" d="M1508.5,1103.1c-19.6.2-35.6,16.1-35.8,35.7-.2,19.7,16.1,36.2,35.9,36.3,19.7.1,36.1-16.3,36.1-36,0-19.8-16.5-36.1-36.2-35.9h0Z"/>
  <path class="st0" d="M863.7,530.1c19.9.1,36-15.9,36-35.8,0-19.7-15.8-35.5-35.5-35.6-19.9-.2-36,15.9-36,35.8,0,19.7,15.8,35.5,35.5,35.6Z"/>
  <path class="st0" d="M1140,529.9c19.9,0,35.6-15.6,35.6-35.4,0-19.9-15.6-35.5-35.4-35.6-19.9,0-35.6,15.5-35.6,35.4,0,19.9,15.5,35.5,35.4,35.6Z"/>
  <path class="st0" d="M1323.7,622.4c19.9,0,35.5-15.6,35.6-35.4,0-19.9-15.6-35.5-35.4-35.6-19.9,0-35.5,15.6-35.6,35.4,0,19.9,15.6,35.5,35.4,35.6h0Z"/>
  <path class="st0" d="M1508.8,898.7c19.7-.1,35.5-15.9,35.6-35.5.1-19.9-15.9-36-35.9-35.9-20,.1-35.9,16.3-35.6,36.2.3,19.7,16.2,35.3,35.9,35.3h0Z"/>
  <path class="st0" d="M1416.5,714.8c19.9-.1,35.4-15.9,35.2-35.8-.2-19.8-15.9-35.3-35.8-35.2-19.9.1-35.4,15.9-35.2,35.8.1,19.8,15.9,35.3,35.8,35.2h0Z"/>
  <path class="st0" d="M771.8,1472.5c-19.6-.1-35.4,15.2-35.6,34.6-.2,19.9,15.2,35.8,34.9,35.9,19.6.1,35.4-15.2,35.6-34.6.2-19.9-15.2-35.8-34.9-35.9h0Z"/>
  <path class="st0" d="M495.4,1196.4c-19.5,0-35.2,15.4-35.3,34.9-.1,19.9,15.4,35.6,35.2,35.6,19.5,0,35.2-15.4,35.3-34.9.1-19.9-15.4-35.6-35.2-35.6Z"/>
  <path class="st0" d="M1232.5,1472.6c-19.4,0-35.1,15.8-35,35.3,0,19.4,15.8,35.1,35.3,35,19.4,0,35.1-15.8,35-35.3,0-19.4-15.8-35.1-35.3-35Z"/>
  <path class="st0" d="M494.1,805.6c19.3.7,35.7-14.8,36.3-34,.6-19.3-14.9-35.7-34.2-36.1-19.3-.5-35.6,15.1-36,34.4-.4,19,14.9,35.1,33.9,35.8h0Z"/>
  <path class="st0" d="M770.9,529.2c18.8.5,34.9-15.1,35.4-34.3.4-18.8-15.2-34.9-34.3-35.4-18.8-.4-34.9,15.2-35.4,34.3-.4,18.9,15.2,34.9,34.3,35.4Z"/>
  <path class="st0" d="M1508.5,1196.8c-19,.2-34.8,16.2-34.6,35.1.2,19,16.2,34.8,35.1,34.6,19-.2,34.8-16.2,34.6-35.1-.2-19-16.2-34.8-35.1-34.6h0Z"/>
  <path class="st0" d="M1509,805.1c19-.2,34.3-15.6,34.3-34.5,0-19.1-15.8-34.9-34.8-34.7-19,.2-34.3,15.6-34.4,34.5,0,19.2,15.8,34.9,34.9,34.7Z"/>
  <path class="st0" d="M1232.7,528.7c19.1-.1,34.2-15.2,34.2-34.3s-15.1-34.2-34.2-34.3c-19.3-.1-34.7,15.3-34.5,34.6.2,19.1,15.4,34.1,34.5,34Z"/>
  <path class="st0" d="M588.4,1381.1c-19.3-.3-34.6,14.6-34.8,33.6-.2,19.3,14.7,34.5,33.8,34.6,19.2.1,34.4-14.9,34.5-34,0-18.9-14.7-34-33.5-34.3h0Z"/>
  <path class="st0" d="M1415.9,1381.4c-18.4.1-33.4,15.2-33.5,33.6,0,18.7,15.2,34,33.8,34,18.7,0,33.9-15.3,33.9-34,0-18.6-15.4-33.8-34.1-33.7Z"/>
  <path class="st0" d="M587.4,620.7c18.7.2,34.1-15,34.2-33.6.1-18.7-15.1-34-33.8-34-18.4,0-33.6,14.9-33.9,33.3-.3,18.7,14.8,34.2,33.4,34.4h0Z"/>
  <path class="st0" d="M495.7,1290.4c-18.5-.3-34.2,15.2-34.1,33.8,0,18.3,15.3,33.6,33.6,33.6,18.3,0,33.7-15.1,33.8-33.5.1-18.3-15-33.7-33.3-34Z"/>
  <path class="st0" d="M679.4,1474c-18.3-.2-33.8,14.8-34.1,33.1-.4,18.5,15,34.3,33.6,34.3,18.3,0,33.7-15.1,33.8-33.5.1-18.3-15-33.7-33.3-34h0Z"/>
  <path class="st0" d="M955.6,1566.5c-18.3-.3-33.8,14.7-34.2,33.1-.4,18.5,15,34.3,33.6,34.4,18.3,0,33.7-15.1,33.9-33.4.2-18.3-14.9-33.7-33.2-34h0Z"/>
  <path class="st0" d="M402.6,921.9c-18.3.2-33.5,15.6-33.4,33.8.2,18.3,15.6,33.5,33.8,33.4,18.3-.2,33.5-15.6,33.4-33.8-.2-18.3-15.6-33.5-33.8-33.4h0Z"/>
  <path class="st0" d="M402.5,1013.1c-18.3.2-33.5,15.7-33.3,33.9.2,18.3,15.7,33.5,33.9,33.3,18.3-.2,33.5-15.7,33.3-33.9-.2-18.3-15.7-33.5-33.9-33.3h0Z"/>
  <path class="st0" d="M1047.5,1566.6c-18.3.1-33.6,15.5-33.5,33.7,0,18.3,15.5,33.6,33.7,33.4,18.3,0,33.6-15.5,33.5-33.7,0-18.3-15.5-33.6-33.7-33.5h0Z"/>
  <path class="st0" d="M1415.9,620.2c18.3.3,33.7-15,33.7-33.4,0-18.2-14.8-33.2-33.1-33.4-18.3-.3-33.7,15-33.7,33.4,0,18.2,14.8,33.1,33.1,33.4Z"/>
  <path class="st0" d="M1323.9,1474.4c-18.3-.1-33.7,15.2-33.5,33.6.2,18.2,15.1,33.1,33.3,33.2,18.3.1,33.7-15.2,33.5-33.6-.2-18.2-15.1-33.1-33.3-33.2Z"/>
  <path class="st0" d="M495.3,712.7c18.4,0,33.7-15.4,33.5-33.7-.2-18.2-15.2-33.1-33.3-33.1-18.4,0-33.7,15.4-33.5,33.7.2,18.2,15.2,33.1,33.3,33.1Z"/>
  <path class="st0" d="M1509.2,1291c-18.5-.3-33.6,14.6-33.6,33.1,0,18.3,14.6,33,33,33.1,18.3.1,33.1-14.5,33.3-32.8.2-18.3-14.3-33.1-32.6-33.4h0Z"/>
  <path class="st0" d="M1600.1,1015.1c-18.5,0-33.1,14.4-33.1,32.9,0,18.5,14.5,33,33,32.9,18.5,0,32.9-14.7,32.7-33.2-.1-18.2-14.5-32.5-32.7-32.6h0Z"/>
  <path class="st0" d="M402.7,1106.3c-18.5,0-32.9,14.7-32.8,33.1.1,18.2,14.5,32.5,32.7,32.6,18.5.1,33.1-14.3,33.1-32.8,0-18.5-14.5-33-33-32.9h0Z"/>
  <path class="st0" d="M678.3,527.3c18.5.3,33.3-14,33.6-32.4.2-18.5-14.1-33.2-32.5-33.4-18.5-.2-33.2,14.3-33.2,32.7,0,18.2,14.1,32.8,32.2,33.1h0Z"/>
  <path class="st0" d="M864.7,1567.3c-18.5-.3-33.4,13.9-33.6,32.3-.3,18.5,14,33.3,32.5,33.5,18.2.2,32.9-13.9,33.3-32,.4-18.6-13.7-33.5-32.1-33.8h0Z"/>
  <path class="st0" d="M1140.1,1567.3c-18.5,0-33,14.6-32.9,33.1,0,18.2,14.4,32.6,32.6,32.7,18.5.1,33.1-14.3,33.2-32.7,0-18.5-14.4-33.1-32.9-33.1h0Z"/>
  <path class="st0" d="M402.7,895.7c18.5,0,33-14.5,32.9-32.9,0-18.2-14.4-32.5-32.6-32.6-18.5,0-33,14.4-32.9,32.9,0,18.1,14.5,32.5,32.6,32.6Z"/>
  <path class="st0" d="M1046.8,435.9c18.6.3,33.3-14,33.5-32.3.1-18.2-14-32.9-32-33.1-18.6-.3-33.3,13.9-33.5,32.3-.2,18.3,14,32.9,32,33.2h0Z"/>
  <path class="st0" d="M1599.8,988.2c18.5,0,32.9-14.5,32.9-32.9,0-18.1-14.5-32.5-32.6-32.5-18.5,0-33,14.5-32.9,32.9,0,18.1,14.5,32.5,32.6,32.5Z"/>
  <path class="st0" d="M956.2,435.9c18.2,0,32.7-14.1,32.9-32.2.2-18.5-14.1-33.2-32.6-33.3-18.2,0-32.7,14.2-32.9,32.2-.2,18.5,14.1,33.2,32.5,33.3Z"/>
  <path class="st0" d="M1508.7,712c18.2,0,32.6-14.5,32.6-32.6,0-18.2-14.5-32.6-32.6-32.6-18.1,0-32.6,14.5-32.6,32.6s14.5,32.6,32.6,32.6Z"/>
  <path class="st0" d="M1323.6,527c18.2,0,32.7-14.4,32.8-32.5,0-18.2-14.3-32.7-32.5-32.8-18.2,0-32.7,14.4-32.8,32.5,0,18.2,14.3,32.7,32.5,32.8h0Z"/>
  <path class="st0" d="M1600.1,1106.6c-18-.1-32.7,14.5-32.8,32.5,0,17.7,14.3,32.4,32,32.6,18,.3,32.9-14.2,33.1-32.1.2-18-14.3-32.8-32.3-32.9h0Z"/>
  <path class="st0" d="M863.9,435.6c17.7,0,32.4-14.6,32.5-32.3.1-17.7-14.4-32.4-32.1-32.6-17.9-.2-32.9,14.7-32.8,32.6,0,17.7,14.8,32.3,32.4,32.3h0Z"/>
  <path class="st0" d="M1601.4,830.7c-17.6-.2-32.5,14.6-32.5,32.2,0,17.4,14.2,31.9,31.7,32.4,17.5.4,32.6-14.2,32.8-31.9.3-17.6-14.4-32.5-32-32.7h0Z"/>
  <path class="st0" d="M1139.8,435.5c17.6.2,32.5-14.5,32.6-32.2.1-17.6-14.7-32.5-32.3-32.4-17.6,0-32.4,14.9-32.2,32.5.2,17.4,14.6,31.9,32,32.1h0Z"/>
  <path class="st0" d="M402.7,1199.5c-17.5.1-31.8,14.5-31.9,31.9-.1,17.6,14.7,32.4,32.3,32.2,17.5-.1,31.8-14.5,31.9-31.9.1-17.6-14.7-32.4-32.3-32.2Z"/>
  <path class="st0" d="M771.7,1568.1c-17.6-.1-32.4,14.6-32.3,32.2.1,17.5,14.4,31.8,31.9,31.9,17.6.2,32.4-14.6,32.3-32.2-.1-17.4-14.4-31.8-31.9-31.9Z"/>
  <path class="st0" d="M403,802.1c17.6,0,31.4-13.8,31.5-31.4,0-17.8-13.9-31.8-31.7-31.8-17.6,0-31.4,13.8-31.5,31.4-.1,17.8,13.9,31.8,31.7,31.8Z"/>
  <path class="st0" d="M1232.7,1568.6c-17.6,0-31.5,13.6-31.7,31.1-.2,17.9,13.6,32,31.4,32,17.6,0,31.5-13.6,31.7-31.1.2-17.9-13.6-32-31.4-32.1Z"/>
  <path class="st0" d="M495.3,1383.9c-17.5,0-31.3,13.8-31.4,31.3,0,17.8,14,31.7,31.8,31.5,17.5-.1,31.1-14.1,31.1-31.6,0-17.5-13.9-31.2-31.4-31.2Z"/>
  <path class="st0" d="M587.8,1476.3c-17.5,0-31.3,13.8-31.4,31.3,0,17.8,14,31.7,31.8,31.6,17.5-.1,31.1-14.1,31.1-31.6,0-17.5-13.9-31.2-31.4-31.2Z"/>
  <path class="st0" d="M1600.1,1200.3c-17.2,0-31.2,13.6-31.5,30.6-.3,17.6,13.5,31.8,30.8,32,17.5.2,31.7-13.6,31.8-31,.1-17.5-13.7-31.6-31.1-31.6h0Z"/>
  <path class="st0" d="M771.3,433.1c17.3,0,31.4-14.1,31.3-31.4,0-17-14.1-31-31.1-31-17.3,0-31.4,14.1-31.4,31.4,0,17,14.1,31,31.1,31Z"/>
  <path class="st0" d="M1601.4,801.6c17-.2,31-14.4,30.9-31.4-.2-17-14.4-31-31.3-30.8-17,.2-31,14.4-30.9,31.3.2,17,14.4,31,31.3,30.8Z"/>
  <path class="st0" d="M1509,1384.2c-17-.2-31.2,13.9-31.4,30.8-.2,17,13.9,31.2,30.8,31.4,17,.2,31.2-13.9,31.4-30.8.2-16.9-13.9-31.2-30.8-31.4h0Z"/>
  <path class="st0" d="M495.2,618c17,0,31.2-14,31.3-31,.1-17-14-31.2-31-31.3-16.9-.1-31.2,14-31.3,31-.1,17,14,31.2,30.9,31.3Z"/>
  <path class="st0" d="M1416.3,1476.6c-17,0-31.1,14.1-31.2,31s14.1,31.1,31,31.2c17,0,31.1-14.1,31.2-31s-14.1-31.1-31-31.2Z"/>
  <path class="st0" d="M1232.9,434.3c17-.2,31-14.5,30.8-31.4-.1-17-14.4-31-31.4-30.8-17,.2-31,14.5-30.8,31.4.2,17,14.5,31,31.4,30.8h0Z"/>
  <path class="st0" d="M588,525.3c16.8-.1,30.7-14.1,30.8-30.8.1-16.9-14.2-31.2-31.1-31.1-16.8.1-30.7,14.1-30.8,30.8-.1,16.9,14.2,31.2,31.1,31.1Z"/>
  <path class="st0" d="M1508.2,617.3c17,.3,30.7-13,31-30,.2-17.1-13.1-30.7-30.2-30.8-17-.1-30.6,13.3-30.6,30.4,0,16.8,13.1,30.2,29.9,30.5h0Z"/>
  <path class="st0" d="M1415.7,524.8c17,.3,30.7-13,30.9-30,.2-17-13.2-30.7-30.2-30.8-17.1-.1-30.6,13.4-30.6,30.4,0,16.8,13.1,30.2,29.9,30.4h0Z"/>
  <path class="st0" d="M679.3,1570c-16.9-.1-30.3,13-30.5,29.8-.2,17.2,13.1,30.7,30.2,30.7,16.9,0,30.1-13.2,30.2-30.1,0-16.9-13.1-30.2-29.9-30.4h0Z"/>
  <path class="st0" d="M402.6,1293.9c-16.8,0-30,13.4-30,30.3,0,16.9,13.2,30.1,30.1,30.1,17.1,0,30.5-13.4,30.3-30.6-.1-16.8-13.5-29.9-30.4-29.8h0Z"/>
  <path class="st0" d="M1323.9,1570.3c-16.7,0-30.2,13.4-30.1,30.1,0,16.4,13.4,29.7,29.8,29.8,16.7,0,30.2-13.4,30.1-30.1,0-16.4-13.4-29.7-29.8-29.8h0Z"/>
  <path class="st0" d="M402.7,709.3c16.7,0,30.2-13.4,30.1-30.1,0-16.4-13.4-29.7-29.8-29.8-16.7,0-30.2,13.4-30.1,30.1,0,16.4,13.4,29.7,29.8,29.8h0Z"/>
  <path class="st0" d="M1599.9,1294.2c-16.4,0-29.9,13.6-29.8,29.9,0,16.3,13.6,29.8,29.9,29.8,16.3,0,29.8-13.6,29.8-29.9,0-16.3-13.6-29.8-29.9-29.8h0Z"/>
  <path class="st0" d="M311.7,1016.8c-16.3,0-29.9,13.5-29.9,29.8,0,16.4,13.5,29.9,29.8,29.9,16.3,0,29.9-13.5,29.9-29.8,0-16.4-13.5-29.9-29.8-29.9h0Z"/>
  <path class="st0" d="M955.3,1661.5c-16.3-.1-30,13.3-30.1,29.6-.1,16.3,13.3,30,29.7,30.1,16.3.1,30-13.3,30.1-29.7.1-16.3-13.3-29.9-29.7-30.1h0Z"/>
  <path class="st0" d="M1047.6,1661.5c-16.4,0-29.9,13.5-29.9,29.9,0,16.4,13.5,29.9,29.8,29.9,16.4,0,29.9-13.5,29.9-29.8,0-16.4-13.5-29.9-29.9-29.9Z"/>
  <path class="st0" d="M311.2,985.2c16.1.3,30-13.2,30.2-29.4.2-16.1-13.4-29.9-29.6-30-15.9-.1-29.4,13-29.9,29.1-.5,16.1,13,30,29.3,30.4h0Z"/>
  <path class="st0" d="M678.8,431.6c16.2.2,29.9-13.4,30-29.6,0-16.2-13.6-29.9-29.8-29.8-16,0-29.4,13.3-29.6,29.3-.3,16.1,13.2,29.9,29.5,30.1h0Z"/>
  <path class="st0" d="M1323,432.7c15.9.6,29.5-12.4,30.2-28.6.7-15.8-12.2-29.6-28.5-30.4-15.8-.8-29.6,12-30.5,28.3-.9,16,12.3,30.1,28.8,30.7h0Z"/>
  <path class="st0" d="M1600.3,708.8c15.8.7,29.5-12.1,30.4-28.4.8-15.8-11.9-29.6-28.2-30.6-16-1-30.1,12.2-30.8,28.7-.6,15.9,12.3,29.5,28.6,30.3h0Z"/>
  <path class="st0" d="M864.7,1662.2c-16-.4-29.2,11.9-29.9,28-.7,16.2,11.8,29.8,28.1,30.4,16.2.6,29.7-12,30.2-28.3.5-16.2-12.2-29.6-28.5-30h0Z"/>
  <path class="st0" d="M312,1109.9c-16.3-.2-29.4,12.7-29.5,29-.1,16.3,12.9,29.4,29.2,29.4s29.3-13.1,29.2-29.4c-.1-16-12.8-28.8-28.9-29Z"/>
  <path class="st0" d="M1140.4,1662.4c-16.2-.1-29.1,12.4-29.2,28.5-.2,16.5,12.6,29.4,29,29.4,16.2,0,28.9-12.7,28.9-28.8,0-16.2-12.5-29-28.7-29.1h0Z"/>
  <path class="st0" d="M311.2,892c16.5.2,29.4-12.5,29.4-29,0-16.2-12.6-28.9-28.8-29-16.2,0-29,12.5-29.1,28.7-.1,16.2,12.4,29.1,28.5,29.3h0Z"/>
  <path class="st0" d="M1692.1,1019c-16.1.1-28.7,12.9-28.7,29.1,0,16.2,12.7,28.8,28.9,28.9,16.5,0,29.2-12.9,29.1-29.4-.2-16.1-13-28.7-29.2-28.6h0Z"/>
  <path class="st0" d="M1047.6,339.5c15.9,0,28.6-12.4,28.8-28.3.2-16.3-12.3-29.2-28.5-29.3-16.3-.1-29.1,12.4-29.2,28.6,0,16.2,12.6,29,28.8,29Z"/>
  <path class="st0" d="M956.2,339.5c16.2.1,29-12.5,29-28.7,0-16-12.4-28.7-28.3-28.9-16.3-.2-29.2,12.3-29.4,28.4-.1,16.3,12.4,29.1,28.6,29.2Z"/>
  <path class="st0" d="M1692.2,984.3c16.2,0,29-12.6,29-28.8,0-15.9-12.4-28.6-28.3-28.8-16.3-.2-29.2,12.3-29.3,28.4-.2,16.3,12.4,29.1,28.6,29.2h0Z"/>
  <path class="st0" d="M495.3,1479.1c-15.8,0-28.5,12.6-28.6,28.4-.1,16.1,12.7,29,28.7,29,15.8,0,28.5-12.7,28.6-28.4.1-16.1-12.7-29-28.7-29h0Z"/>
  <path class="st0" d="M1692.5,1110.5c-15.7,0-28.6,12.8-28.7,28.5,0,15.7,12.8,28.6,28.5,28.7,15.7,0,28.6-12.9,28.7-28.5,0-15.7-12.9-28.6-28.5-28.7h0Z"/>
  <path class="st0" d="M1139.8,339.2c15.5.2,28.8-12.9,28.7-28.5,0-15.3-12.8-28.2-28.2-28.4-15.5-.2-28.7,12.9-28.7,28.5,0,15.3,12.8,28.2,28.1,28.4Z"/>
  <path class="st0" d="M1692.1,891.4c15.5.2,28.8-12.9,28.7-28.5,0-15.3-12.8-28.2-28.1-28.4-15.5-.2-28.8,12.9-28.8,28.5,0,15.3,12.8,28.2,28.1,28.4Z"/>
  <path class="st0" d="M863.8,339.2c15.6.1,28.7-13,28.6-28.6-.1-15.4-12.9-28.2-28.3-28.3-15.6-.1-28.7,13-28.6,28.6.1,15.4,12.9,28.2,28.3,28.3Z"/>
  <path class="st0" d="M1508.8,1479.5c-15.4,0-28.3,12.8-28.3,28.2,0,15.3,12.8,28.2,28.2,28.3s28.3-12.8,28.3-28.2c0-15.3-12.8-28.3-28.2-28.3Z"/>
  <path class="st0" d="M495.5,522.6c15.4,0,28.2-13,28.1-28.4,0-15.4-13-28.2-28.4-28.1-15.4,0-28.2,13-28.1,28.3,0,15.4,13,28.2,28.4,28.1h0Z"/>
  <path class="st0" d="M588.1,1572c-15.3-.2-28.3,12.5-28.5,27.9-.2,15.3,12.5,28.3,27.9,28.6,15.3.2,28.3-12.5,28.6-27.9.2-15.3-12.5-28.3-27.9-28.6h0Z"/>
  <path class="st0" d="M402.9,1387c-15.3,0-28.3,12.8-28.3,28.1,0,15.3,12.8,28.3,28.2,28.3,15.3,0,28.3-12.8,28.3-28.2,0-15.3-12.8-28.3-28.2-28.3Z"/>
  <path class="st0" d="M310.4,1203.4c-15.4,0-28.2,12.9-28.2,28.3,0,15.4,12.9,28.2,28.3,28.2,15.4,0,28.2-12.9,28.2-28.3,0-15.4-12.9-28.2-28.3-28.2Z"/>
  <path class="st0" d="M771.6,1663.2c-15.3-.1-28.3,12.7-28.4,28.1,0,15.3,12.7,28.3,28.1,28.3,15.3.1,28.3-12.7,28.4-28.1.1-15.3-12.7-28.3-28.1-28.4Z"/>
  <path class="st0" d="M312,798.2c15.4-.2,27.4-12.4,27.3-27.9,0-15.4-12.2-27.5-27.7-27.5-15.5,0-27.6,12.1-27.6,27.5,0,15.7,12.3,28,28,27.8h0Z"/>
  <path class="st0" d="M1416.5,1572.6c-15.5-.1-27.7,11.8-27.9,27.3-.2,15.8,12,28.1,27.7,28.1,15.4,0,27.6-12.1,27.6-27.6,0-15.5-12-27.6-27.4-27.8Z"/>
  <path class="st0" d="M1232.8,1664.8c-15.7-.2-28.2,12.3-28.2,28,0,15.7,12.7,28.1,28.3,27.9,15.4-.3,27.6-12.6,27.5-28,0-15.4-12.2-27.7-27.7-27.8h0Z"/>
  <path class="st0" d="M402.5,614.4c15.5.1,27.8-11.9,27.8-27.3,0-15.5-12.1-27.7-27.5-27.7s-27.3,11.9-27.5,27c-.2,15.5,11.8,27.8,27.2,28h0Z"/>
  <path class="st0" d="M771.5,338.1c15.1,0,27.3-12.2,27.3-27.3,0-15.1-12-27.4-27.1-27.5-15.1-.1-27.5,11.9-27.6,27-.2,15.4,12.1,27.8,27.4,27.8h0Z"/>
  <path class="st0" d="M1692.8,1204.3c-15.4-.2-27.8,12.1-27.8,27.5,0,15.1,12.2,27.3,27.3,27.3,15.1,0,27.4-12.1,27.4-27.2.1-15.1-11.9-27.4-27-27.6h0Z"/>
  <path class="st0" d="M1600.2,1387.8c-15.5-.1-27.7,11.9-27.8,27.3,0,15.5,12.1,27.7,27.5,27.6,15.4,0,27.6-12.2,27.5-27.7,0-15.1-12-27.2-27.2-27.3h0Z"/>
  <path class="st0" d="M1508.2,521.9c15.5.2,27.9-11.8,28-27.1.1-15.5-11.9-27.8-27.3-27.9-15.5,0-27.7,12-27.7,27.5,0,15.2,11.9,27.3,27,27.5h0Z"/>
  <path class="st0" d="M587.4,429.3c15.4.2,27.8-12.1,27.8-27.4,0-15.1-12.2-27.3-27.3-27.3-15.1,0-27.4,12.1-27.5,27.1-.1,15.1,11.9,27.5,26.9,27.7h0Z"/>
  <path class="st0" d="M1232.5,338c15,0,27.4-12.3,27.4-27.3,0-15-12.5-27.3-27.5-27.2-14.9.1-27.3,12.6-27,27.6.2,14.7,12.4,26.8,27.1,26.9h0Z"/>
  <path class="st0" d="M1692.3,797.8c15,0,27.4-12.4,27.4-27.3,0-15-12.5-27.3-27.5-27.2-14.7.1-26.9,12.3-27,27-.1,15,12.2,27.5,27.2,27.5Z"/>
  <path class="st0" d="M1416.1,430.3c14.8.1,27.5-12.6,27.3-27.5-.2-14.7-12.7-26.9-27.3-26.8-14.6.2-26.9,12.5-26.9,27.2,0,14.6,12.3,27,27,27.1h0Z"/>
  <path class="st0" d="M1601.2,613.9c14.6,0,27-12.3,27.1-27,0-14.6-12.2-27-26.8-27.3-14.6-.2-27.1,12-27.4,26.7-.3,14.8,12.3,27.6,27.2,27.5Z"/>
  <path class="st0" d="M679.1,1664.9c-15,0-26.9,11.9-26.7,26.9.2,14.7,12,26.3,26.7,26.2,14.7-.1,26.4-11.8,26.3-26.6,0-14.7-11.7-26.4-26.4-26.5Z"/>
  <path class="st0" d="M310.5,1296.5c-14.6,0-26.2,11.2-26.4,25.7-.3,14.9,11.1,26.7,25.8,26.9,14.9.2,26.6-11.2,26.8-26,.1-14.9-11.3-26.6-26.1-26.6h0Z"/>
  <path class="st0" d="M311.6,705.5c14.7,0,26.3-11.6,26.3-26.4,0-14.4-11.6-25.9-26-25.9-14.7,0-26.3,11.6-26.3,26.4,0,14.4,11.6,25.9,26,25.9Z"/>
  <path class="st0" d="M1324.5,1666.6c-14.8-.3-26.7,11.1-26.9,25.7-.1,14.5,11.1,26.3,25.4,26.5,14.8.3,26.7-11.1,26.9-25.8.1-14.5-11.1-26.2-25.4-26.5Z"/>
  <path class="st0" d="M1692.3,1298.2c-13.9,0-25.6,11.7-25.8,25.7-.1,14.2,11.8,26.2,26,26.1,14,0,25.7-11.7,25.8-25.6.1-14.2-11.8-26.2-26-26.1h0Z"/>
  <path class="st0" d="M680.6,336.6c14-.2,25.6-11.9,25.6-25.9,0-14.2-12-26.1-26.2-25.9-14,.2-25.6,11.9-25.6,25.9,0,14.2,12,26.1,26.2,25.9Z"/>
  <path class="st0" d="M955.2,1758.5c-14,0-25.3,11.2-25.4,25.2-.1,14.2,11.5,25.7,25.7,25.5,14-.2,25.2-11.6,25.1-25.5,0-14-11.4-25.2-25.3-25.2h0Z"/>
  <path class="st0" d="M1323.7,336.1c14,0,25.3-11.2,25.4-25.2.1-14-11-25.3-25-25.6-14-.2-25.4,10.8-25.7,24.8-.4,14.2,11.1,25.9,25.3,25.9h0Z"/>
  <path class="st0" d="M1692.8,704.7c14-.3,25.1-11.7,25-25.6-.2-14-11.5-25.2-25.5-25.1-14,0-25.2,11.3-25.3,25.3,0,14.2,11.6,25.7,25.8,25.4Z"/>
  <path class="st0" d="M403.1,1482.4c-14-.2-25.4,10.9-25.7,24.9-.3,14,10.7,25.4,24.7,25.8,14.2.4,25.9-11,26-25.2,0-14-11.1-25.3-25.1-25.5h0Z"/>
  <path class="st0" d="M495.7,1574.9c-14.2-.3-25.8,11.2-25.8,25.4,0,14,11.3,25.2,25.3,25.3,14,0,25.3-11.1,25.4-25.1.1-14-11-25.3-25-25.6h0Z"/>
  <path class="st0" d="M219.3,1021.6c-14.1,0-25.1,10.9-25.2,25,0,14.1,10.9,25.1,25,25.2,14.1,0,25.1-10.9,25.2-25,0-14.1-10.9-25.1-25-25.2h0Z"/>
  <path class="st0" d="M219.3,930.4c-14.1,0-25.1,10.9-25.1,25,0,14.1,10.9,25.1,25,25.1,14.1,0,25.1-10.9,25.1-25,0-14.1-10.9-25.1-25-25.1Z"/>
  <path class="st0" d="M1047.3,1758.8c-14.1.1-24.9,11.2-24.7,25.4.1,14.1,11.2,24.9,25.3,24.8,14.1-.1,24.9-11.2,24.7-25.4-.1-14.1-11.2-24.9-25.3-24.8Z"/>
  <path class="st0" d="M1508.9,1575.4c-13.8,0-24.9,10.7-25,24.4-.2,14.1,10.7,25.3,24.7,25.3,13.8,0,24.8-10.7,25-24.4.2-14.2-10.7-25.3-24.7-25.4h0Z"/>
  <path class="st0" d="M219.2,1114.4c-13.7,0-24.8,11-24.8,24.7,0,13.6,11,24.7,24.7,24.8,13.7,0,24.8-11,24.8-24.7,0-13.7-11-24.8-24.7-24.8h0Z"/>
  <path class="st0" d="M218.6,887.6c13.5.4,25.1-10.7,25.3-24.3.2-13.3-10.6-24.5-24-24.9-13.5-.4-25.1,10.7-25.3,24.3-.2,13.2,10.6,24.5,24,25h0Z"/>
  <path class="st0" d="M1599.8,1483c-13.7,0-24.7,11.1-24.7,24.8,0,13.6,11.1,24.7,24.8,24.7,13.6,0,24.7-11.2,24.7-24.8,0-13.6-11.2-24.7-24.8-24.6Z"/>
  <path class="st0" d="M403,519.1c13.6,0,24.6-11.3,24.6-24.9,0-13.6-11.3-24.6-24.9-24.5-13.6,0-24.6,11.3-24.5,24.9,0,13.6,11.3,24.6,24.9,24.5h0Z"/>
  <path class="st0" d="M495.2,426.6c13.7,0,24.8-11,24.8-24.6,0-13.7-11-24.8-24.6-24.9-13.7,0-24.8,11-24.8,24.6,0,13.7,11,24.8,24.6,24.8Z"/>
  <path class="st0" d="M864,1759.1c-13.7,0-24.8,11-24.8,24.6,0,13.7,11,24.8,24.6,24.9,13.7,0,24.8-11,24.8-24.6,0-13.7-11-24.8-24.6-24.9Z"/>
  <path class="st0" d="M1140,1759.1c-13.6,0-24.7,11.2-24.6,24.9,0,13.6,11.2,24.7,24.9,24.6,13.6,0,24.7-11.2,24.6-24.9,0-13.6-11.2-24.7-24.9-24.6Z"/>
  <path class="st0" d="M1784.7,931.1c-13.1.1-24,11-24.3,24.1-.3,13.2,10.9,24.6,24.2,24.8,13.2.1,24.6-11.1,24.6-24.4,0-13.3-11.3-24.6-24.6-24.5h0Z"/>
  <path class="st0" d="M309.9,1390.8c-13.1.3-23.9,11.3-24,24.4,0,13.3,11.3,24.5,24.6,24.4,13.3-.1,24.5-11.5,24.3-24.7-.2-13.4-11.7-24.5-24.9-24.1h0Z"/>
  <path class="st0" d="M588.1,1667c-13.2-.2-24.6,11-24.7,24.3,0,13.3,11.2,24.6,24.5,24.5,13.3,0,24.5-11.4,24.4-24.6-.1-13.1-11-24-24.1-24.2Z"/>
  <path class="st0" d="M956.1,242.7c13.2.2,24.6-10.9,24.8-24.2.1-13.2-11.1-24.6-24.4-24.6-13,0-24.1,10.7-24.5,23.9-.4,13.2,10.7,24.7,24.1,24.9h0Z"/>
  <path class="st0" d="M1047.4,242.7c13.2.2,24.6-11,24.7-24.3,0-13.3-11.2-24.6-24.5-24.5-13.1,0-24,10.9-24.4,24-.3,13.2,10.8,24.7,24.2,24.9h0Z"/>
  <path class="st0" d="M1784.7,1023.5c-13.3.1-24.5,11.5-24.2,24.7.2,13.1,11.2,24,24.2,24.1,13.3.1,24.6-11.1,24.6-24.4s-11.3-24.5-24.6-24.4Z"/>
  <path class="st0" d="M1508.9,427.3c13.3-.1,23.9-10.9,23.9-24.1,0-13.3-10.7-24-24-24.1-13.5-.1-24.5,11-24.2,24.4.2,13.3,11.1,23.9,24.3,23.8h0Z"/>
  <path class="st0" d="M1600.4,518.5c13.2.5,24.2-9.8,24.8-23.2.6-13.2-9.6-24.3-23-25-13.1-.7-24.3,9.4-25.1,22.8-.8,13.4,9.7,24.8,23.3,25.3h0Z"/>
  <path class="st0" d="M863.5,242c13.5.2,24.1-10.1,24.2-23.5.1-13.5-10.3-24-23.7-24-13.2,0-23.6,10.1-23.8,23.2-.2,13.5,10,24.2,23.4,24.3Z"/>
  <path class="st0" d="M1416.9,1668.9c-13.5-.3-24.2,10-24.4,23.3-.2,13.5,10.1,24.1,23.5,24.2,13.5.1,24-10.2,24-23.6,0-13.2-10.1-23.6-23.1-23.9h0Z"/>
  <path class="st0" d="M1785.2,1115.4c-13.2-.1-23.7,9.9-24.1,23-.4,13.5,9.8,24.3,23.1,24.6,13.5.3,24.2-9.9,24.4-23.3.2-13.5-10.1-24.1-23.4-24.3Z"/>
  <path class="st0" d="M219.8,1208.1c-13.2-.2-23.9,9.8-24.2,22.8-.3,13.5,9.9,24.3,23.2,24.4,13.2.1,23.7-10,23.9-23.1.2-13.2-9.9-23.8-22.9-24.1Z"/>
  <path class="st0" d="M1139.4,241.8c13.2.3,23.9-9.7,24.3-22.7.4-13.5-9.8-24.3-23.2-24.4-13.2-.2-23.7,10-24,23-.2,13.2,9.8,23.8,22.8,24.1h0Z"/>
  <path class="st0" d="M1784.4,886.6c13.5.2,24-10.2,24-23.6,0-13.1-10.3-23.5-23.4-23.5-13.2,0-23.6,10.2-23.7,23.3-.1,13.2,10.1,23.7,23.1,23.8Z"/>
  <path class="st0" d="M311.6,610.4c13.2,0,23.6-10.2,23.7-23.3.1-13.2-10.1-23.7-23.1-23.9-13.5-.2-24,10.2-24,23.6,0,13.1,10.3,23.5,23.5,23.5h0Z"/>
  <path class="st0" d="M772.1,1760.3c-13.2-.2-23.9,9.8-24.2,22.8-.3,13.5,9.9,24.2,23.3,24.4,13.2.1,23.7-10.1,23.9-23.1.2-13.2-9.9-23.8-22.9-24.1Z"/>
  <path class="st0" d="M1692.5,1391.8c-13,0-23.5,10.5-23.5,23.5,0,12.8,10.3,23.2,23,23.4,13,.2,23.7-10.2,23.8-23.2.1-13-10.3-23.6-23.3-23.7Z"/>
  <path class="st0" d="M587.4,334.2c13.1.2,23.7-10.2,23.8-23.2.1-13-10.3-23.7-23.3-23.7-13,0-23.6,10.5-23.5,23.5,0,12.8,10.3,23.2,23,23.4h0Z"/>
  <path class="st0" d="M1230.9,1760.5c-12.7.1-23,10.5-23.1,23.3,0,13,10.5,23.6,23.5,23.5,13,0,23.5-10.6,23.4-23.6,0-13-10.7-23.4-23.8-23.2h0Z"/>
  <path class="st0" d="M219.6,793.8c12.6-.2,23-11,22.9-23.5-.2-12.6-10.8-23.1-23.4-23.1-12.6,0-23.2,10.6-23.2,23.2,0,12.8,10.9,23.7,23.7,23.4h0Z"/>
  <path class="st0" d="M1691.8,609.9c12.5.5,23.5-10.1,23.7-22.8.2-12.3-10-22.9-22.5-23.3-12.5-.4-23.5,10.1-23.7,22.8-.2,12.3,10,22.9,22.5,23.3h0Z"/>
  <path class="st0" d="M1415.9,333.8c12.3.2,22.9-9.9,23.4-22.4.5-12.5-10-23.5-22.7-23.7-12.3-.2-22.9,9.9-23.4,22.4-.5,12.5,10,23.5,22.7,23.7h0Z"/>
  <path class="st0" d="M771.3,240.9c12.6.1,22.8-9.9,22.8-22.5,0-12.6-9.9-22.8-22.5-22.9-12.6-.1-22.8,9.9-22.9,22.5,0,12.6,9.9,22.8,22.5,22.8h0Z"/>
  <path class="st0" d="M1785,1208.9c-12.6,0-22.7,9.9-22.8,22.6-.1,12.6,9.9,22.8,22.5,22.8,12.6,0,22.7-9.9,22.8-22.5.1-12.6-9.9-22.7-22.5-22.8Z"/>
  <path class="st0" d="M1784.9,794.2c12.5,0,22.3-9.6,22.4-22.1.1-12.8-9.6-22.7-22.4-22.7-12.5,0-22.3,9.7-22.4,22.1-.1,12.8,9.6,22.7,22.4,22.7h0Z"/>
  <path class="st0" d="M1232.8,240.4c12.4,0,22.1-10,22-22.4-.1-12.4-10-22.1-22.4-22-12.4,0-22.1,10-22,22.4,0,12.4,10,22.1,22.4,22h0Z"/>
  <path class="st0" d="M219.7,1300.9c-11.8-.3-22.2,9.7-22.4,21.6-.2,11.8,9.8,22.1,21.7,22.2,11.9.1,22.1-10,22.1-21.9s-9.7-21.6-21.4-21.9h0Z"/>
  <path class="st0" d="M402.6,1578.3c-11.7.2-21.5,9.9-21.7,21.7-.2,11.8,9.9,22.1,21.8,22.1,11.9,0,22-10.1,22-22s-10.3-22-22.1-21.8h0Z"/>
  <path class="st0" d="M678.7,1762c-11.7.2-21.5,10-21.6,21.7-.1,11.8,10,22.1,21.9,22.1,11.9,0,22-10.2,21.9-22-.1-11.9-10.3-22-22.2-21.8h0Z"/>
  <path class="st0" d="M1324.3,1762.3c-11.9-.4-22.1,9.5-22.2,21.5,0,11.7,9.5,21.5,21.3,21.7,11.7.2,21.6-9.3,21.9-21.2.3-11.7-9.2-21.6-21-22h0Z"/>
  <path class="st0" d="M219.3,700.9c11.8,0,21.4-9.8,21.5-21.5,0-11.8-9.6-21.5-21.4-21.6-11.7-.1-21.5,9.4-21.8,21.2-.2,12,9.7,22,21.7,21.9h0Z"/>
  <path class="st0" d="M1599.9,1579c-11.8,0-21.1,9.1-21.2,20.9-.1,12.1,9.2,21.5,21.2,21.5,11.8,0,21.1-9.1,21.2-20.9.1-12.1-9.2-21.5-21.2-21.5h0Z"/>
  <path class="st0" d="M495.6,1670.2c-12.1-.1-21.5,9.2-21.5,21.2,0,11.8,9.2,21,20.9,21.2,12.1.1,21.5-9.2,21.5-21.2,0-11.8-9.2-21-20.9-21.2Z"/>
  <path class="st0" d="M310.5,1486.6c-12.1,0-21.4,9.4-21.3,21.4.1,11.8,9.3,20.9,21.1,21,12.1,0,21.4-9.4,21.3-21.4-.1-11.8-9.3-20.9-21.1-21Z"/>
  <path class="st0" d="M1784.6,1303.1c-11.7,0-20.8,9.4-20.7,21.2,0,11.7,9.4,20.8,21.2,20.8,11.7,0,20.9-9.4,20.8-21.2,0-11.7-9.4-20.8-21.2-20.8h0Z"/>
  <path class="st0" d="M403,422.9c11.7,0,20.9-9.4,20.8-21.1,0-11.7-9.3-20.9-21.1-20.8-11.7,0-20.9,9.3-20.8,21.1,0,11.7,9.4,20.9,21.1,20.8Z"/>
  <path class="st0" d="M680.5,239.1c11.4-.1,20.6-9.5,20.6-20.9,0-11.4-9.3-20.7-20.7-20.8-11.4,0-20.8,9.2-20.9,20.6-.1,11.7,9.4,21.2,21,21.1h0Z"/>
  <path class="st0" d="M1508.8,1671.9c-11.4,0-20.8,9.2-21,20.6-.1,11.7,9.4,21.2,21.1,21.1,11.4-.1,20.6-9.5,20.6-20.9,0-11.4-9.3-20.7-20.7-20.8h0Z"/>
  <path class="st0" d="M311.4,515c11.1.2,20.8-9.3,20.9-20.5,0-11.2-9.5-20.8-20.7-20.8-11,0-20.3,9.2-20.6,20.2-.3,11.1,9.1,20.9,20.4,21.1h0Z"/>
  <path class="st0" d="M1692.9,1487.1c-11.1-.4-21,9-21.2,20.2-.3,11.2,9.2,20.9,20.4,21.1,11.2.2,20.8-9.4,20.9-20.6,0-10.9-9-20.3-20.1-20.7h0Z"/>
  <path class="st0" d="M1323.7,238.9c11.2,0,20.8-9.5,20.7-20.7,0-11.2-9.7-20.7-20.9-20.6-11.2.2-20.7,9.9-20.4,21.1.3,11,9.6,20.2,20.6,20.2h0Z"/>
  <path class="st0" d="M1601,423.8c11.2.2,20.8-9.4,20.9-20.6,0-11-9.1-20.4-20.1-20.7-11.1-.4-21,9-21.2,20.2-.3,11.2,9.2,20.9,20.4,21Z"/>
  <path class="st0" d="M1784.1,700c10.9.5,20.6-8.3,21.4-19.4.8-11-8.2-21.1-19.5-21.9-11.1-.7-21.1,8.4-21.7,19.7-.6,11.1,8.6,21.1,19.9,21.6h0Z"/>
  <path class="st0" d="M495.2,331.1c11,.1,20.4-9.1,20.5-20.2,0-11.1-9.1-20.4-20.2-20.5-11-.1-20.4,9.1-20.5,20.2,0,11.1,9.1,20.4,20.2,20.5Z"/>
  <path class="st0" d="M1692.1,514c11.2.1,19.9-8.4,20-19.5,0-11.1-8.6-19.8-19.7-19.8s-19.5,8.4-19.6,19.2c-.2,11.2,8.3,20,19.4,20.1h0Z"/>
  <path class="st0" d="M955.8,1856.7c-11.2-.3-20.1,8.1-20.3,19.2-.2,11.2,8.3,20,19.4,20.1,11.2.1,19.9-8.4,20-19.5,0-10.9-8.3-19.5-19-19.8h0Z"/>
  <path class="st0" d="M127.3,1027c-11.2-.2-20.1,8.2-20.2,19.3-.2,11.2,8.3,20,19.4,20.1,11.2.1,19.9-8.5,19.9-19.6,0-10.9-8.3-19.5-19.1-19.8Z"/>
  <path class="st0" d="M126.8,935.8c-10.9,0-19.5,8.3-19.7,19.1-.2,11.2,8.2,20.1,19.3,20.2,11.2.2,20-8.4,20.1-19.5.1-11.2-8.5-19.9-19.6-19.9h0Z"/>
  <path class="st0" d="M1508.2,330.4c11.2.2,20-8.2,20.2-19.3.1-11.2-8.4-19.9-19.5-20-10.9,0-19.6,8.2-19.9,19-.3,11.2,8.1,20.1,19.2,20.4h0Z"/>
  <path class="st0" d="M1047.9,1856.7c-11.2-.1-19.9,8.5-19.9,19.6,0,11.1,8.6,19.8,19.8,19.8,11.1,0,19.7-8.8,19.6-19.9-.1-10.8-8.6-19.3-19.4-19.4h0Z"/>
  <path class="st0" d="M588.1,1764.4c-10.7-.1-19.6,8.4-19.8,19.1-.2,10.6,8.3,19.6,18.9,19.9,10.9.3,20-8.5,20.1-19.4,0-10.7-8.6-19.5-19.3-19.6h0Z"/>
  <path class="st0" d="M219.6,1395.8c-10.6-.2-19.6,8.3-19.9,18.9-.3,10.9,8.5,20.1,19.4,20.1,10.7,0,19.5-8.6,19.6-19.3.1-10.6-8.5-19.5-19.1-19.8h0Z"/>
  <path class="st0" d="M865.2,1857.1c-10.4-.8-19.9,7.7-20.5,18.4-.6,10.1,7.6,19.3,18.1,20.2,10.4.8,19.9-7.7,20.5-18.4.6-10.1-7.6-19.4-18.1-20.2Z"/>
  <path class="st0" d="M126.8,1119.8c-10.3,0-19.1,8.6-19.4,18.9-.3,10.5,8.7,19.7,19.2,19.7,10.3,0,19.1-8.6,19.4-18.9.3-10.5-8.7-19.7-19.2-19.7Z"/>
  <path class="st0" d="M1140.1,1857.1c-10.3,0-19.1,8.7-19.3,19-.2,10.5,8.8,19.6,19.3,19.6s19.1-8.7,19.3-19c.2-10.5-8.8-19.6-19.3-19.6Z"/>
  <path class="st0" d="M1416.8,1764.9c-10.4-.4-19.3,8-19.6,18.5-.3,10.4,8.2,19.2,18.7,19.4,10.4.2,19.2-8.4,19.3-18.8,0-10.2-8.1-18.7-18.4-19.1h0Z"/>
  <path class="st0" d="M126.4,882c10.4.2,19.2-8.4,19.2-18.9,0-10.2-8.1-18.7-18.4-19-10.4-.4-19.3,8-19.6,18.5-.3,10.4,8.2,19.2,18.7,19.4h0Z"/>
  <path class="st0" d="M1047.5,144.3c10.4,0,18.5-7.9,18.6-18.3.1-10.5-7.7-18.6-18.1-18.8-10.5-.2-18.7,7.6-19,17.9-.3,10.7,7.7,19.1,18.4,19.2Z"/>
  <path class="st0" d="M219.4,605.4c10.4-.1,18.4-8.1,18.3-18.6,0-10.4-8-18.5-18.4-18.5-10.7,0-18.8,8.2-18.7,18.9.1,10.4,8.3,18.3,18.7,18.2Z"/>
  <path class="st0" d="M1877.2,937c-10.4,0-18.4,8.1-18.4,18.5s8,18.5,18.4,18.5c10.7,0,18.8-8.1,18.7-18.8-.1-10.4-8.2-18.3-18.7-18.2h0Z"/>
  <path class="st0" d="M1877.8,1029.4c-10.5-.2-18.7,7.6-19,17.9-.2,10.7,7.8,19.1,18.4,19.2,10.5,0,18.5-7.8,18.7-18.3.1-10.5-7.7-18.6-18.1-18.8Z"/>
  <path class="st0" d="M956.3,144.3c10.5,0,18.5-7.9,18.7-18.2.1-10.5-7.7-18.6-18.1-18.8-10.5-.2-18.7,7.6-19,17.9-.3,10.8,7.7,19.1,18.4,19.2h0Z"/>
  <path class="st0" d="M587.9,236.5c10.1,0,18.1-8,18.2-18.1,0-10.4-8.1-18.6-18.4-18.5-10.1,0-18.1,8.1-18.2,18.1,0,10.4,8.1,18.6,18.4,18.5Z"/>
  <path class="st0" d="M1784.9,1397c-10.1,0-18.2,7.9-18.3,18-.1,10.4,7.9,18.6,18.3,18.7,10.1,0,18.2-7.9,18.3-18,.2-10.4-7.9-18.7-18.3-18.7h0Z"/>
  <path class="st0" d="M863.7,143.9c9.9.1,18.3-8.1,18.4-18.1,0-9.9-8.3-18.3-18.2-18.2-9.7,0-17.8,8.1-18,17.8-.2,9.9,8,18.4,17.9,18.5h0Z"/>
  <path class="st0" d="M1876.9,1121c-9.7.3-17.7,8.4-17.7,18.1,0,9.9,8.3,18.3,18.3,18.2,9.9,0,18.2-8.5,18-18.4-.2-9.9-8.7-18.1-18.6-17.9h0Z"/>
  <path class="st0" d="M771.7,1858.2c-9.9-.1-18.3,8.1-18.4,18.1,0,9.9,8.3,18.3,18.2,18.2,9.9,0,18.2-8.5,18-18.4-.2-9.7-8.2-17.7-17.9-17.9h0Z"/>
  <path class="st0" d="M1416.5,236.1c9.7-.2,17.8-8.6,17.7-18.1-.2-9.6-8.6-17.8-18.2-17.6-9.6.2-17.8,8.5-17.6,18.1.2,9.6,8.6,17.8,18.1,17.6h0Z"/>
  <path class="st0" d="M1877.4,880.9c9.6,0,17.8-8.4,17.8-18,0-9.6-8.4-17.8-18-17.8-9.6,0-17.8,8.4-17.8,18,0,9.6,8.4,17.9,18,17.8Z"/>
  <path class="st0" d="M126.5,1213.7c-9.6.2-17.8,8.5-17.6,18.1.2,9.6,8.5,17.8,18.1,17.6,9.7-.2,17.8-8.6,17.6-18.1-.2-9.7-8.6-17.8-18.1-17.6h0Z"/>
  <path class="st0" d="M1784.6,604.7c9.6.2,18-8,18.1-17.6.1-9.6-8-17.9-17.6-18.1-9.6-.2-18,8-18.1,17.6-.2,9.6,8,18,17.6,18.1Z"/>
  <path class="st0" d="M1139.9,143.6c9.6.1,17.9-8.1,18-17.7.1-9.6-8.1-17.9-17.7-18-9.6-.1-17.9,8.1-18,17.7-.1,9.6,8.1,17.9,17.7,18Z"/>
  <path class="st0" d="M1231.3,1858.5c-9.6,0-17.9,8.2-17.9,17.8,0,9.6,8.2,17.9,17.8,17.9,9.6,0,17.9-8.2,17.9-17.8,0-9.6-8.2-17.9-17.9-17.9h0Z"/>
  <path class="st0" d="M403,1674c-9.7,0-17.4,7.4-17.6,17.1-.2,10,7.6,17.8,17.6,17.8,9.7,0,17.2-7.7,17.2-17.4,0-9.7-7.5-17.3-17.2-17.4Z"/>
  <path class="st0" d="M126.7,787.9c9.7,0,17.3-7.5,17.4-17.2,0-9.7-7.4-17.4-17.1-17.6-10-.2-17.8,7.6-17.7,17.6,0,9.7,7.7,17.2,17.4,17.2h0Z"/>
  <path class="st0" d="M310.6,1583.2c-9.8-.1-17.4,7.4-17.3,17.1,0,9.5,7.3,16.9,16.8,17,9.8.1,17.4-7.4,17.3-17.2,0-9.5-7.4-16.9-16.8-17h0Z"/>
  <path class="st0" d="M1877.5,1214.7c-9.3,0-17,7.5-17,16.7,0,9.3,7.5,17,16.8,17,9.3,0,17-7.5,17-16.8,0-9.3-7.5-17-16.8-17h0Z"/>
  <path class="st0" d="M1692.4,1583.6c-8.9,0-16.7,7.7-16.7,16.6,0,8.9,7.7,16.7,16.6,16.7,8.9,0,16.7-7.7,16.7-16.6,0-8.9-7.7-16.7-16.6-16.7Z"/>
  <path class="st0" d="M1599.7,1676.1c-8.9.1-16.6,7.9-16.5,16.8.1,8.9,7.9,16.6,16.8,16.5,8.9-.1,16.6-8,16.5-16.8-.1-8.9-8-16.6-16.8-16.5Z"/>
  <path class="st0" d="M311.4,418.5c8.9.1,16.7-7.5,16.9-16.4.1-8.9-7.5-16.7-16.4-16.9-8.9-.2-16.7,7.5-16.9,16.4-.1,8.9,7.5,16.7,16.4,16.9Z"/>
  <path class="st0" d="M771.3,142.4c8.9.1,16.7-7.6,16.8-16.5.1-8.9-7.6-16.7-16.5-16.8-8.9-.1-16.7,7.6-16.8,16.5-.1,8.9,7.6,16.7,16.5,16.8h0Z"/>
  <path class="st0" d="M402.8,326.9c9,0,16.1-7,16.2-16,0-9-6.9-16.2-15.8-16.4-9-.2-16.2,6.7-16.5,15.7-.3,9.2,6.9,16.6,16.1,16.7Z"/>
  <path class="st0" d="M1232.7,141.9c9-.1,16-7.2,16-16.2s-7-16.1-16-16.2c-9,0-16.1,6.9-16.3,15.8-.2,9.2,7.1,16.6,16.3,16.5h0Z"/>
  <path class="st0" d="M1877.6,788c9-.2,16-7.3,15.9-16.3,0-9-7.1-16-16.1-16.1-9,0-16.1,7-16.2,16-.1,9.2,7.2,16.5,16.4,16.4h0Z"/>
  <path class="st0" d="M219.4,1491.9c-9.1,0-16,6.9-16,16,0,8.8,6.8,15.6,15.6,15.7,9.1,0,16-6.9,16-15.9,0-8.8-6.8-15.6-15.6-15.7Z"/>
  <path class="st0" d="M495.3,1768.1c-9.1,0-15.9,7-15.8,16.1.1,8.8,7,15.5,15.8,15.5,9.1,0,15.9-7,15.8-16.1-.1-8.8-7-15.5-15.8-15.5Z"/>
  <path class="st0" d="M126.8,1307c-8.8,0-15.7,6.7-15.9,15.4-.2,9.1,6.7,16.2,15.7,16.2,8.8,0,15.7-6.6,15.9-15.4.2-9.1-6.7-16.2-15.7-16.2h0Z"/>
  <path class="st0" d="M678.8,1860.6c-8.8.1-15.5,6.9-15.6,15.7,0,9.1,6.9,16,16,15.9,8.8-.1,15.5-6.9,15.6-15.7,0-9.1-6.9-16-16-15.9Z"/>
  <path class="st0" d="M1601.3,326.3c8.6,0,15.6-7.3,15.5-15.8-.1-8.6-7.4-15.6-16-15.4-8.3.2-15.2,7.2-15.2,15.5,0,8.6,7.1,15.7,15.7,15.7Z"/>
  <path class="st0" d="M1691.9,418.8c8.6.2,15.9-6.7,16-15.3.2-8.6-6.9-15.8-15.5-15.9-8.3,0-15.4,6.7-15.7,15-.4,8.6,6.6,16,15.2,16.2Z"/>
  <path class="st0" d="M1324.6,1860.8c-8.6-.5-16,6.3-16.4,14.9-.4,8.6,6.5,16,15.1,16.3,8.6.3,15.9-6.7,16.1-15.3.2-8.3-6.4-15.5-14.7-15.9h0Z"/>
  <path class="st0" d="M1508.8,1768.6c-8.2-.1-15.4,6.9-15.5,15.2,0,8.2,6.9,15.4,15.2,15.5,8.2.1,15.4-6.9,15.5-15.2.1-8.2-6.9-15.4-15.2-15.4Z"/>
  <path class="st0" d="M126.9,693.4c8.2-.1,15.3-7.3,15.1-15.5-.1-8.2-7.3-15.3-15.5-15.2-8.2.1-15.3,7.3-15.2,15.5.1,8.2,7.3,15.3,15.5,15.2h0Z"/>
  <path class="st0" d="M1785.1,1493c-8.3-.2-14.9,6.1-15.1,14.5-.1,8.3,6.2,14.9,14.5,15.1,8.3.1,14.9-6.2,15.1-14.5.2-8.3-6.2-14.9-14.5-15.1Z"/>
  <path class="st0" d="M219.1,509.2c8.4,0,14.8-6.3,14.9-14.7,0-8.3-6.3-14.8-14.7-14.9-8.4,0-14.8,6.3-14.9,14.7,0,8.4,6.3,14.8,14.7,14.9Z"/>
  <path class="st0" d="M1877.6,1309.7c-8.1-.1-14.5,6-14.7,14-.2,8.3,6.1,14.9,14.5,14.9s14.3-6.2,14.4-14.3c0-8-6.1-14.4-14.1-14.6Z"/>
  <path class="st0" d="M495.3,232.7c8.1,0,14.4-6.2,14.5-14.2,0-8.1-6.1-14.5-14.1-14.6-8.1-.1-14.6,5.9-14.8,13.9-.2,8.4,6.1,14.9,14.4,14.9h0Z"/>
  <path class="st0" d="M680,140c7.8.2,14.6-6.5,14.6-14.4,0-7.6-6.5-14.1-14.2-14.1s-14.1,6.4-14.2,14c-.1,7.6,6.2,14.2,13.9,14.4h0Z"/>
  <path class="st0" d="M1784.8,508.2c7.4,0,13.7-6.1,13.9-13.6.1-7.4-6-13.8-13.4-14.1-7.4-.2-13.9,5.8-14.2,13.2-.3,7.6,6,14.3,13.7,14.4h0Z"/>
  <path class="st0" d="M1324.4,139.5c7.4.4,13.9-5.5,14.4-13,.5-7.6-5.7-14.4-13.4-14.6-7.4-.2-13.8,5.9-14.1,13.3-.3,7.4,5.7,13.9,13.1,14.3h0Z"/>
  <path class="st0" d="M1508.5,232c7.6.2,14.2-6.4,14.1-14-.2-7.4-6.5-13.6-13.9-13.6-7.4,0-13.7,6.3-13.7,13.7,0,7.4,6.1,13.7,13.6,13.9Z"/>
  <path class="st0" d="M1877.2,693.1c7.4,0,13.7-6.1,13.9-13.5.2-7.4-5.9-13.8-13.4-14.1-7.4-.2-13.9,5.8-14.2,13.2-.4,7.6,6,14.3,13.7,14.4h0Z"/>
  <path class="st0" d="M126.6,1402.6c-6.6,0-12.4,5.7-12.6,12.4-.2,6.8,5.8,12.9,12.7,12.9,6.6,0,12.4-5.7,12.6-12.4.2-6.8-5.8-12.9-12.7-12.9Z"/>
  <path class="st0" d="M588.1,1863.7c-6.6-.2-12.5,5.3-12.9,12-.4,6.8,5.4,13.1,12.3,13.2,6.6.2,12.5-5.3,12.9-12,.4-6.8-5.4-13.1-12.3-13.2Z"/>
  <path class="st0" d="M34.6,943.5c-7.1-.2-12.4,5.1-12.3,12.2,0,6.8,5.2,11.8,12,11.9,6.8,0,11.9-5.1,12-11.8,0-6.8-4.9-12-11.7-12.2h0Z"/>
  <path class="st0" d="M34.4,1034.7c-7.1,0-12.3,5.2-12.2,12.3.1,6.7,5.4,11.7,12.2,11.7,6.8,0,11.8-5.2,11.8-12s-5.1-11.9-11.8-12h0Z"/>
  <path class="st0" d="M1416.5,1864.4c-7.1-.1-12.4,5.1-12.3,12.2,0,6.8,5.2,11.8,12,11.8,6.8,0,11.9-5.1,12-11.9,0-6.8-4.9-12-11.7-12.2h0Z"/>
  <path class="st0" d="M955.3,1956.9c-6.8,0-12,4.9-12.1,11.7-.1,6.8,4.8,12.1,11.5,12.3,7.1.2,12.5-4.9,12.5-12,0-6.8-5.1-11.9-11.9-12h0Z"/>
  <path class="st0" d="M1048,1956.9c-6.8-.2-12.2,4.7-12.4,11.4-.3,7.1,4.9,12.5,11.9,12.5,6.8,0,12-5,12.1-11.8.1-6.8-4.8-12-11.6-12.2h0Z"/>
  <path class="st0" d="M864.2,1957.2c-6.3-.1-11.7,5-11.9,11.3-.2,6.6,5.2,12.2,11.8,12.1,6.3,0,11.6-5.3,11.6-11.6,0-6.3-5.2-11.7-11.5-11.8h0Z"/>
  <path class="st0" d="M126.6,598.5c6.3.1,11.7-5.1,11.8-11.4.2-6.6-5.3-12.1-11.9-12-6.3.1-11.5,5.4-11.5,11.7,0,6.3,5.2,11.6,11.6,11.7h0Z"/>
  <path class="st0" d="M310.5,1679.7c-6.3,0-11.7,5.1-11.8,11.4-.2,6.6,5.3,12.1,11.9,12,6.3-.1,11.5-5.4,11.5-11.7s-5.2-11.6-11.6-11.7h0Z"/>
  <path class="st0" d="M34.4,1127.8c-5.9-.1-11.3,4.9-11.5,10.9-.2,6.2,5.2,11.7,11.4,11.7,6,0,11.1-5.3,11.2-11.2s-5.1-11.2-11.1-11.3h0Z"/>
  <path class="st0" d="M34.1,874.3c5.9,0,11.2-5,11.4-11,.2-5.9-4.8-11.3-10.8-11.6-6.1-.3-11.8,5.1-11.7,11.3,0,5.9,5.2,11.2,11.2,11.3h0Z"/>
  <path class="st0" d="M1877.5,1404c-5.9-.1-11.2,5-11.4,11-.2,6.2,5.3,11.7,11.4,11.6,6,0,11.1-5.3,11.1-11.3s-5.2-11.2-11.1-11.3h0Z"/>
  <path class="st0" d="M1140.4,1957.6c-5.9-.2-11.3,4.8-11.6,10.8-.3,5.9,4.6,11.4,10.6,11.8,5.9.4,11.4-4.4,11.9-10.5.5-6.1-4.7-11.9-10.9-12.1h0Z"/>
  <path class="st0" d="M1968.4,966.1c6.1,0,10.7-4.4,10.7-10.5,0-6.1-4.4-10.7-10.5-10.7-6.1,0-10.7,4.4-10.7,10.5,0,6.1,4.4,10.7,10.5,10.7h0Z"/>
  <path class="st0" d="M956.4,45.2c6.1,0,10.6-4.5,10.7-10.6,0-6.1-4.5-10.6-10.6-10.7-6.1,0-10.6,4.5-10.7,10.6,0,6.1,4.5,10.6,10.6,10.6Z"/>
  <path class="st0" d="M1047.4,45.2c6.1.1,10.7-4.3,10.8-10.4.1-6.1-4.4-10.7-10.4-10.8-6.1-.1-10.7,4.3-10.8,10.4-.1,6.1,4.4,10.7,10.4,10.8Z"/>
  <path class="st0" d="M312,321.3c6-.1,10.5-4.8,10.3-10.9-.1-6-4.8-10.5-10.9-10.3-6.1.1-10.5,4.8-10.3,10.9.1,6,4.8,10.5,10.9,10.3Z"/>
  <path class="st0" d="M1968.5,1037.3c-6.1,0-10.6,4.5-10.6,10.6,0,6.1,4.5,10.6,10.6,10.6,6.1,0,10.6-4.5,10.6-10.6,0-6.1-4.5-10.6-10.6-10.6Z"/>
  <path class="st0" d="M588,136.4c6.1-.1,10.5-4.7,10.4-10.8-.1-6.1-4.7-10.5-10.8-10.4-6.1,0-10.5,4.7-10.4,10.8.1,6.1,4.7,10.5,10.8,10.4h0Z"/>
  <path class="st0" d="M1692.7,1682.1c-6.1-.1-10.8,4.2-10.9,10.4-.2,6.1,4.3,10.7,10.3,10.9,6.1.1,10.8-4.2,10.9-10.4.1-6.1-4.2-10.8-10.3-10.9Z"/>
  <path class="st0" d="M403.1,1773.3c-6.1-.1-10.7,4.3-10.8,10.4-.1,6.1,4.3,10.7,10.4,10.8,6.1.1,10.7-4.3,10.8-10.4.1-6.1-4.3-10.7-10.4-10.8Z"/>
  <path class="st0" d="M218.9,1589.6c-6.1.1-10.5,4.8-10.3,10.9.1,6.1,4.8,10.5,10.9,10.4,6.1-.1,10.5-4.8,10.3-10.9-.1-6-4.8-10.5-10.9-10.4Z"/>
  <path class="st0" d="M1416.3,136.1c5.6,0,10.4-5,10.2-10.5-.1-5.6-5.1-10.3-10.7-10.1-5.3.2-9.9,4.9-9.9,10.2,0,5.5,4.8,10.4,10.4,10.4h0Z"/>
  <path class="st0" d="M1600,1773.6c-5.6,0-10.5,4.8-10.4,10.3,0,5.6,4.9,10.4,10.5,10.3,5.6-.1,10.3-5.1,10.1-10.7-.2-5.3-4.8-9.9-10.2-9.9h0Z"/>
  <path class="st0" d="M1877.3,597.2c5.6,0,10.4-4.9,10.3-10.5-.1-5.6-5.1-10.3-10.6-10.1-5.3.2-9.9,4.8-10,10.1,0,5.5,4.7,10.5,10.3,10.5h0Z"/>
  <path class="st0" d="M863.8,44.2c5.3.1,9.5-3.8,9.8-9.1.3-5.6-3.9-10-9.5-10.1-5.3,0-9.5,3.9-9.8,9.1-.3,5.6,3.9,10,9.4,10.1Z"/>
  <path class="st0" d="M1139.9,44.2c5.3,0,9.5-3.9,9.8-9.2.2-5.5-3.9-10-9.5-10.1-5.3,0-9.5,3.9-9.8,9.2-.2,5.6,3.9,10,9.5,10.1Z"/>
  <path class="st0" d="M1968,1129.5c-5.3.3-9.2,4.5-9.1,9.8.1,5.3,4.2,9.3,9.5,9.4,5.5,0,9.8-4.2,9.7-9.8-.1-5.5-4.6-9.7-10.2-9.4h0Z"/>
  <path class="st0" d="M1968.1,872.6c5.6.2,10-4,10.1-9.5,0-5.3-3.9-9.5-9.2-9.7-5.5-.2-10,3.9-10,9.5,0,5.3,3.9,9.5,9.2,9.7h0Z"/>
  <path class="st0" d="M1785.3,1590.6c-5.6-.2-10,4-10,9.5,0,5.3,3.9,9.5,9.2,9.7,5.6.2,10-4,10-9.5,0-5.3-3.9-9.5-9.2-9.7h0Z"/>
  <path class="st0" d="M219.1,411.5c5.3,0,9.5-3.9,9.7-9.2.2-5.5-4-10-9.5-10-5.3,0-9.5,3.9-9.7,9.2-.2,5.6,4,10,9.5,10.1h0Z"/>
  <path class="st0" d="M34.2,1222c-5.3,0-9.4,4-9.6,9.3-.2,5.6,4.1,9.9,9.6,9.9s9.5-4,9.6-9.3c.2-5.6-4.1-10-9.6-10h0Z"/>
  <path class="st0" d="M772.1,1959.2c-5.6-.3-10.1,3.7-10.3,9.3-.2,5.3,3.7,9.6,9,9.9,5.6.3,10.1-3.8,10.3-9.3.1-5.3-3.7-9.6-9-9.9h0Z"/>
  <path class="st0" d="M1231.5,1959.2c-5.3,0-9.5,3.9-9.8,9.1-.2,5.6,3.9,10,9.4,10.1,5.3.1,9.5-3.8,9.8-9.1.3-5.5-3.9-10-9.4-10.1h0Z"/>
  <path class="st0" d="M402.4,227.4c5.2.3,9.6-3.9,9.6-9.1,0-4.9-4-9-9-9.1-4.9,0-9.1,3.9-9.3,8.8-.2,5,3.7,9.2,8.7,9.4h0Z"/>
  <path class="st0" d="M1691.9,319.8c5.2.2,9.6-3.9,9.6-9.1s-4-9.1-9-9.1c-5,0-9.1,3.9-9.3,8.8-.2,4.9,3.7,9.2,8.7,9.4h0Z"/>
  <path class="st0" d="M34.1,779.6c4.9,0,9.1-3.9,9.3-8.8.2-5.2-4.1-9.5-9.3-9.4-5,.1-9,4.2-8.9,9.2,0,4.9,4,9,9,9.1h0Z"/>
  <path class="st0" d="M1601.1,226.8c4.7,0,8.7-3.9,8.7-8.6,0-4.7-4.1-8.8-8.8-8.5-5,.3-7.9,3.3-8.3,8.2-.4,4.7,3.7,8.8,8.4,8.9h0Z"/>
  <path class="st0" d="M1968.1,1223.1c-5,.5-7.9,3.4-8.2,8.4-.3,4.7,3.9,8.7,8.6,8.7,4.7,0,8.7-4.1,8.5-8.8-.1-4.7-4.3-8.7-9-8.3h0Z"/>
  <path class="st0" d="M1784.4,411.8c4.7.2,8.8-3.7,9-8.3.1-4.7-3.8-9-8.5-8.8-5,.2-8,3-8.6,8-.6,4.6,3.4,8.9,8.1,9.2h0Z"/>
  <path class="st0" d="M494.9,1867.8c-5,.5-7.9,3.5-8.1,8.5-.2,4.7,3.9,8.7,8.6,8.7,4.7,0,8.6-4.2,8.5-8.8-.1-4.7-4.4-8.8-9-8.3h0Z"/>
  <path class="st0" d="M126.8,1499.8c-4.7.5-7.7,2.9-7.9,7.7-.1,4.8,2.6,7.6,7.4,8,4.6.4,8.4-3.3,8.2-7.9-.2-4.9-3.1-7.3-7.8-7.8h0Z"/>
  <path class="st0" d="M771.3,42.5c4.7-.4,7.8-2.8,7.9-7.6.1-4.8-2.6-7.6-7.4-8.1-4.6-.5-8.4,3.3-8.3,7.8.2,4.8,3,7.3,7.7,7.9h0Z"/>
  <path class="st0" d="M1232.5,42.4c4.9-.1,7.3-2.9,8-7.5-.4-4.8-2.7-7.8-7.6-8.1-4.8-.2-7.7,2.5-8.2,7.2-.5,4.6,3.2,8.5,7.7,8.4h0Z"/>
  <path class="st0" d="M1968.9,779.7c4.6-.7,7.5-3.2,7.4-8-.1-4.8-2.9-7.5-7.7-7.7-4.6-.2-8.2,3.7-7.9,8.3.4,4.8,3.4,7.1,8.2,7.5h0Z"/>
  <path class="st0" d="M1508.9,1869.6c-2.7-.1-5.6,3.4-8.5,5.3,0,1,0,2,0,3,2.7,1.9,5.2,4.9,8.1,5.4,4.4.7,7.9-2.7,7-7-.6-2.7-4.2-6.6-6.7-6.7h0Z"/>
  <path class="st0" d="M126.3,501.1c2.7.2,5.7-3.2,8.6-5v-3c-2.6-2-5-5.1-7.9-5.7-4.4-.8-8,2.5-7.2,6.8.5,2.7,4,6.7,6.5,6.9h0Z"/>
  <path class="st0" d="M34.2,1316c-2.4-.3-5.3,3-8,4.8,0,1,0,2,0,3.1,2.7,2,5.2,5.3,8.1,5.8,4.4.7,7.8-2.9,6.8-7.2-.6-2.7-4.2-6.1-6.9-6.5h0Z"/>
  <path class="st0" d="M679.5,1962c-4.2-1.2-7.9,2.1-7.4,6.5.3,2.9,3.5,5.5,5.4,8.3,1,0,2.1,0,3.1,0,1.8-2.6,5.4-5.3,5.1-7.7-.3-2.7-3.6-6.4-6.3-7.1h0Z"/>
  <path class="st0" d="M1321.5,1962.2c-5,1.7-5.9,5.5-3.8,10.6,4.7-1.9,8.7-3.4,12.9-5-1.3-5.2-4.6-7.1-9.1-5.6h0Z"/>
  <path class="st0" d="M1870.8,1504.9c-1.8,4.1-.2,7.3,4.2,9.7,2.4-4.3,4.6-8.1,7.2-12.6-5.7-2.2-9.4-1.6-11.3,2.9h0Z"/>
  <path class="st0" d="M497.7,131.4c3.9-1.2,5.2-4.7,2.8-9.6-4,2.1-7.6,3.9-11.2,5.8,0,.7-.2,1.5-.2,2.2,2.9.6,6.1,2.3,8.7,1.6Z"/>
  <path class="st0" d="M40.2,679.3c.6-2.1-1.7-5.1-2.8-7.8-.8.2-1.5.3-2.3.4-1.2,3.9-2.4,7.9-3.7,11.8.8.6,1.6,1.1,2.3,1.7,2.2-2,5.6-3.7,6.3-6.2h0Z"/>
</svg>