<?xml version="1.0" encoding="UTF-8"?>
<svg id="Layer_1" data-name="Layer 1" xmlns="http://www.w3.org/2000/svg" viewBox="0 0 2976.38 2976.38">
  <defs>
    <style>
      .cls-1 {
        fill: #fff;
        fill-rule: evenodd;
      }
    </style>
  </defs>
  <path class="cls-1" d="M1791.63,1395.05c742.46,310.76,625.56-248.97,967.72-482.22-661.24-221.68-989.99-224.61-1042.55,408.62-108.94,109.26-203.36,211.94-310.46,444.22-134.42-491.28-533.61-892.39-1047.56-1157.03,501.1,219.37,715.42,367.44,926.13,702.79C1540.63,415.37,705.46,702.42,217.02,482.87c241.99,465.86,203.8,1206.37,908.29,930.66,69.79,76.73,145.61,223.61,182.76,385.11-143.2,29.87-264.51,134.33-294.66,300.1-208.3-150.38-473.11,2.32-450.59,251.37-121.84-44.75-223.89,16.5-227.39,143.4h2235.71c12.35-151.47-105.19-268.8-252.03-248.98-13.61-284.09-308.44-430.29-592.48-306.68-67.44-72.65-149.47-117.46-233.67-136.85,112.64-254.47,218.39-371.29,298.66-405.95Z"/>
</svg>