<?xml version="1.0" encoding="UTF-8"?>
<svg id="Layer_1" data-name="Layer 1" xmlns="http://www.w3.org/2000/svg" viewBox="0 0 5000 5000">
  <defs>
    <style>
      .cls-1 {
        fill: #fff;
      }
    </style>
  </defs>
  <path class="cls-1" d="M2770.82,3565.12c186.15,44.29,367.92,104.74,556.47,140.52-14.36,7.01-29.16,5.09-43.61,4.26-142.97-8.16-279.21-45.15-412.24-96.14-28.74-11.01-58.36-19.69-87.35-30.07-18.58-6.66-28.3-3.35-34.85,17.85-19.85,64.17-58.91,116-108.56,160.76-115.43,104.06-280.99,52.9-349.08-55.55-19.93-31.74-32.97-66.03-41.07-102.42-2.42-10.86-5.38-17.96-20.06-12.85-139.96,48.66-283.71,82.77-429.01,110.92-28.7,5.56-56.98,13.29-85.44,20.08-8.93,2.13-17.79,4.72-31.15-.39,180.8-71.54,369.29-101.06,553.2-148.52-30.76-12.33-62.28-11.63-93.13-14.47-95.06-8.75-189.83-17.9-283.11-40.32-254.63-61.2-475.55-184.14-668.4-359.74-115.8-105.44-220.59-221.83-331.01-332.61-96.39-96.7-194.64-191.19-308.42-267.89-88.98-59.98-184.78-104.73-288.97-131.14-10.05-2.55-20.89-3.63-32.61-13.32,161.73-53.67,323.67-89.78,490.64-101.58,2.82-11.55-5.51-16.58-10.19-22.72-95.34-125.13-193.98-247.45-306.12-358.24-5.18-5.12-15.19-9.92-11.92-17.91,3.35-8.2,13.78-4.08,20.96-3.89,183.46,4.69,357.91,48.35,525.36,122.07,11.91,5.24,24.08,9.92,37.59,15.46,2.83-12.53-2.52-22.39-5.34-32.07-57.02-195.35-97.75-394.57-141.18-593.14-1.38-6.29-6.62-14.63-.17-19.47,7.23-5.42,14.53,1.92,21.15,5,211.51,98.11,408.13,219.86,586.66,370.26,5.3,4.47,10.59,9,16.24,13,4.71,3.34,8.59,11.13,15.39,7.16,5-2.92,3.06-10.07,2.24-15.08-4.37-26.76-2.95-53.81-4.75-80.68-8.73-129.72,2.44-258.52,17.74-387.08,14.84-124.67,35.65-248.39,63.83-370.77,3.85-16.72,2.55-42.28,18.3-46.45,14.34-3.79,24.29,20.01,35.32,32.32,124.05,138.45,240.96,282.63,346.83,435.55,15.69,22.66,29.83,46.39,44.56,69.43,8.66-2.81,9.15-9.66,11.14-15.12,79.98-219.41,187.61-425.55,301.38-628.76,56.09-100.19,114.21-199.2,173.8-297.35,13.6-22.4,13.85-21.96,27.05-.31,92.69,151.98,183.22,305.22,268.18,461.67,81.71,150.46,155.95,304.42,212.61,466.36,1.92,5.5,2.26,12.23,9.96,16.74,9.69-17.49,18.75-35.09,28.92-52.02,67.81-112.78,151.19-213.77,238.08-311.98,43.39-49.04,86.18-98.71,133.75-143.86,22.66-21.51,25.15-20.76,34.39,9.53,30.9,101.27,46.46,205.69,62.18,309.95,22.9,151.84,32.27,304.63,28.89,458.25-2.05,93.34-10.67,185.91-26.73,277.84-.78,4.44-.89,8.99-1.02,10.4,119.62-124.8,260.36-222.09,418.59-294.74,21.64-9.94,23.05-8.78,20.54,16.11-10.71,106.32-37.85,209-71.38,310.01-38.14,114.9-83.08,226.98-149.19,336.56,30.29-8.1,56.32-14.69,82.08-22.21,6.38-1.86,6.59-9.94,9.36-15.3,119.97-232.05,180.57-482.21,224.98-737.32,1.13-6.52,6.54-14.57-.35-19.23-6.11-4.14-13.23,1.71-19.31,4.63-148.28,71.21-292.82,148.54-419.11,255.8-19.38,16.46-39.34,32.23-59.15,48.18-3.48,2.8-7.24,6.7-12.27,4.32-5.16-2.43-4.22-7.84-3.93-12.23,2.51-38.3,6.68-72.49,40.6-102.05,108.19-94.29,226.52-173.06,351.81-241.62,74.99-41.03,152.32-77.79,228.71-116.23,7.37-3.71,16.31-10.86,23.56-5.96,8.29,5.61,1.81,15.95.07,23.66-45.12,200.43-76.98,404.15-147.58,598.32-1.94,5.32-7.66,11.91-2.03,17.06,5.44,4.98,11.56-.86,16.87-3.12,80.78-34.39,160.88-70.23,247-90.45,101.53-23.84,204.4-36.93,308.28-43.5,5.31-.34,12.19-2.4,15.05,2.67,4.63,8.18-3.94,12.34-8.37,16.83-86.18,87.35-164.41,181.65-242.05,276.45-23.43,28.61-45.52,58.26-66.17,89.02-10.56,15.73-6.75,20.8,10.75,22.21,72.18,5.79,144,14.53,214.73,30.41,86.26,19.36,171.64,42.19,256.52,66.55-1.25,10.22-8.66,9.22-14.14,10.44-200.44,44.65-365.32,151.08-511.15,291.8-104.34,100.68-200.06,209.6-302.36,312.2-99.24,99.54-204.18,192.27-320.64,271.44-4.39,2.98-8.48,6.42-15.9,12.08,36.22,2.22,68.75,4.02,101.25,6.23,129.4,8.83,257.16,27.44,381.62,65.1,46.82,14.17,90.86,34.1,128.44,66.34,8.45,7.25,18.39,10.34,29.33,12.32,124.43,22.56,247.88,49.26,365.3,97.68,61.5,25.36,120.04,56.18,167.16,105,53.88,55.83,58.51,117.08,12.37,179.13-36.22,48.71-84.89,82.37-137.28,111.14-155.04,85.16-322.29,134.08-495.22,165.73-138,25.26-277.24,39.72-417.31,47.19-29.98,1.6-59.91,4.49-89.97,4.32-12.47-.07-21.94,6.22-31.47,12.86-250.34,174.45-529.83,274.14-829.71,318.06-264.13,38.68-527.02,26.74-786.72-36.3-238.43-57.88-463.04-149.2-668.47-284.85-13.94-9.2-28.21-10.59-43.82-10.61-175.9-.2-350.91-11.51-523.74-45.97-135.59-27.03-268.16-64.2-393.09-124.93-41.71-20.27-80.77-45-116.71-74.4-9.52-7.79-18.63-16.2-27.12-25.1-65.63-68.84-62.22-138.36,8.05-202.66,69.11-63.24,151.93-101.69,237.89-134.66,84.28-32.32,171.11-56.37,258.72-77.69,30.84-7.5,60.01-18.95,88.15-33.87,133.09-70.55,276.81-106.54,424.56-129.06,11.41-1.74,23.2-1.9,34.26-4.84,29-7.73,50.9,4.53,70.85,23.25,4.75,4.46,13.6,7.42,10.69,15.84-2.42,7-10.5,4.79-16.31,5.68-99.71,15.3-199.43,30.57-296.25,60.06-21.16,6.45-42.01,13.95-61.95,26.29,35.3-4.09,70.68-7.55,105.87-12.38,112.1-15.38,224.32-29.71,337.26-37.1,25.96-1.7,43.33,20.35,72.67,30.84-35.85,12.47-66.46,11.07-96.07,14.85-277.99,35.55-551.88,88.74-814.74,189.14-53.34,20.38-104.88,45.02-149.74,81.36-60.85,49.29-60.9,87.7,2.16,134.41,68.63,50.83,148.88,77.13,229.46,100.95,168.08,49.69,340.15,79.29,514.17,98.59,57.42,6.37,114.84,12,172.61,13.16,10.37.21,19.58,2.91,28.3,8.48,175.86,112.37,370.7,175.94,572.14,222.65,214.64,49.78,432.5,66.12,651.78,54.22,250.74-13.61,494.41-64.03,727.69-159.55,76.58-31.35,148.73-71.21,217.88-116.26,29.87-19.46,62.04-25.23,96.21-27.66,244.41-17.36,484.51-57.99,717.44-135.72,62.88-20.98,124.17-46.31,181.48-80.25,19.95-11.82,39.16-24.65,55.03-41.81,21.69-23.46,22.82-47.11,3.42-72.76-13.77-18.19-32.5-30.57-51.47-42.38-100.13-62.32-210.7-97.88-324.58-123.7-200.64-45.5-403.54-77.44-608.17-98.96-57.33-6.03-115.11-9.48-171.75-21.41-4.3-.9-8.38-2.83-12.26-7.22,185.07-21.08,369.09,1.2,553.62,11.99-40.12-17.93-81.92-30.01-123.64-42.25-71.08-20.85-144.35-31.53-216.81-45.98-13.7-2.73-28.28-4.89-39.19-13.05-19.97-14.93-35.25-7.46-53.7,3.54-90.51,53.99-182.01,106.24-279.99,146,2.29,5.29,5.76,3.9,8.42,3.89,113.24-.45,226.49-2.1,339.42,9.22,170.37,17.09,339.79,38.9,500.71,102.03,41.01,16.09,79.93,36.41,113.93,65.11,48.25,40.73,51.16,90.87,7.48,136.01-40.92,42.28-90.81,71.33-144.08,94.51-115.49,50.25-237.71,74.41-361.81,90.51-110.07,14.28-220.67,21.24-331.62,22.72-8.85.12-16.48,2.59-23.58,7.88-107.48,80.05-230.7,125.89-357.64,163.01-126.86,37.1-256.63,57.83-388.54,65.9-247.89,15.16-492.6-3.87-732.26-71.07-117.83-33.04-230.63-78.35-326.78-157.22-10.76-8.83-22.89-7.92-35.11-7.74-138.98,2.12-277.1-7.16-413.77-33.02-100.93-19.1-199.74-45.79-292.4-91.44-35.48-17.48-67.76-39.79-93.88-70.08-37.29-43.25-36.94-90.18.91-133.2,35.88-40.78,83.63-62.54,132.8-81.15,118.79-44.96,242.06-70.72,368.13-84.87,108.19-12.14,216.61-15.24,325.28-12.57,40.01.98,80.06,3.49,118.52,16.33,4.74,1.58,11.17,1.4,12.6,9.67-9.58,5.12-19.16-.62-28.52-.79-237.66-4.24-467.85,33.83-689.09,121.9-31.41,12.5-62.49,26.57-89.36,47.92-31.51,25.04-31.67,46.18.84,70.23,29.34,21.71,63.05,35.46,96.74,48.78,111.82,44.21,229,66.15,347.39,82.99,96.92,13.78,194.4,21.57,292.03,27.73,9.57.6,18.03,3.02,25.8,8.65,109.71,79.45,235.3,119.7,365.7,148.03,194.14,42.18,391,50.9,588.4,40.92,187.9-9.5,371.42-44.14,545.79-118.46,35.51-15.13,69.63-32.9,102.83-52.53,21.51-12.72,44.4-21.79,69.74-21.98,151.76-1.12,300.2-27.92,448.14-58.22,76.27-15.62,151.49-35.33,224.56-62.58,33.34-12.43,65.57-27.2,94-48.89,32.67-24.92,32.44-50.26-.79-74.13-53.5-38.42-115.35-58.41-177.5-76.37-162.42-46.94-328.66-74.45-496.36-93.89-38.22-4.43-76.4-9.53-114.74-12.46-49.32-3.78-97.94-2.35-145.98,14.23-85.08,29.37-174.17,37.49-263.26,45.44-45.03,4.02-90.16,2.04-135.44,5.78h.03ZM2596.77,3223.28c8.07-11.17,16.08-22.4,24.23-33.52,138.57-189.14,253.93-391.55,344.55-607.76,51.27-122.31,83.63-249.78,89.89-382.62,8.84-187.71-23.84-369.61-81.78-547.55-56.72-174.19-133.08-339.85-219.34-501.06-68.1-127.26-145.2-248.87-235.59-361.67-22.57-28.16-23.3-27.76-45.23,1.2-205.24,271.1-358.12,569.23-459.55,893.62-40.82,130.53-67.02,264.16-74.23,400.92-9.21,174.59,25.78,341.83,90.42,503.08,91.53,228.35,225.55,432.41,365.93,632.65,1.13,1.62,2.83,3.94,5.68.61-79.78-135.27-152.34-274.56-217.36-417.77-77.65-171.03-144.02-345.21-162.24-534.55-14.99-155.83-3.09-309.1,36.12-460.32,57.76-222.73,154.19-428.55,275.58-623.15,44.87-71.94,93.62-141.27,146.12-207.93,12.35-15.68,20.96-15.4,33.5.54,26.21,33.33,51.58,67.23,75.96,101.9,144.08,204.91,260.56,423.45,332.05,664.77,62.37,210.53,78.29,423.58,34.54,639.2-42.37,208.79-129.5,401.11-227,588.84-43.55,83.85-87.04,167.84-132.26,250.55v.02ZM1938.89,1633.57c5.37-18.69,7.45-31.9,12.85-43.58,17.48-37.83,19.35-72.65-15.11-102.5-.55-.48-.83-1.29-1.22-1.95-41.67-72.38-91.94-138.59-145.42-202.49-45.58-54.46-95.79-104.44-147.06-153.47-11.52-11.01-15.94-7.75-19.63,5.57-3.9,14.09-9.02,27.83-13,41.9-35.33,125.12-53.07,253.19-58.53,382.65-6.42,152.01,4.14,303.09,34.21,452.65,34.58,171.99,96,334.25,174.94,490.28,18.42,36.41,37.6,72.52,58.4,107.6,7.18,12.1,2.31,27.96,14.69,37.45,43.27,33.14,85.05,68.11,126.42,103.73-11.84-19.68-25.26-38.1-36.86-57.6-60.32-101.4-116.02-205.22-161.4-314.28-93.35-224.3-146.97-456.71-144.51-700.91.78-77.13,5.08-153.92,14.93-230.31,6.79-52.63,14.08-105.31,26.55-157.01,5.09-21.11,9.01-22.03,24.74-7.04,8.35,7.96,16.33,16.39,23.86,25.14,65.5,76.03,124.57,156.82,178.33,241.53,16.44,25.9,33.03,51.7,52.82,82.64h0ZM3034.11,2755.31c35.8-30.26,66.75-56.29,97.46-82.6,2.66-2.28,4.9-6.24,5.35-9.68,2.06-15.99,10.88-28.81,19.42-41.48,54.05-80.16,96.82-166.31,136.65-254.12,99.88-220.2,149.31-451.15,145.78-692.82-2.12-145.63-14.68-290.56-41.64-433.9-8.04-42.75-15.66-85.71-28.84-129.75-6.92,6.38-12.3,10.58-16.79,15.58-64.3,71.68-131.04,141.16-192.9,215.04-47.66,56.93-80.56,124.05-126.62,182.05-3.17,4-3.85,8.26-2.55,12.98,7.51,27.19,15.05,54.37,24.21,87.44,13.43-22.88,23.74-40.66,34.25-58.32,60.54-101.73,131.15-195.78,214.24-280.26,5.74-5.84,11.79-15.54,20.35-13.06,8.81,2.55,7.52,13.9,9.09,21.98,38.28,196.37,48.05,394.18,26.52,593.05-21.91,202.43-77.57,395.49-167.66,578.35-47.57,96.56-96.26,192.53-156.34,289.54l.02-.02ZM678.63,2530.99c31.36,14.48,63.02,28.35,94.03,43.53,154.94,75.86,297.42,171.57,436.2,273.35,143.53,105.26,281.33,218.38,429.33,317.43,217.22,145.37,446.8,261.69,712.56,286.94,38.88,3.69,77.87,11.93,117.21,3.34,6.9-1.51,14.27-2.46,14.01-12.01-.24-8.63-6.63-11.78-13.62-13.38-9.74-2.24-19.59-4.14-29.49-5.5-81.03-11.14-160.87-27.6-238.49-53.71-186.59-62.77-360.44-152.26-526.03-257.43-177.56-112.77-351.88-230.61-529.19-343.78-147.59-94.2-300.69-178.57-466.51-238.77h0ZM1284.46,2367.71c-16.88-30.36-31.71-55.45-45.07-81.3-91.89-177.71-154.41-365.61-193.32-561.55-2.47-12.46-13.15-29.34-3.67-36.98,10.9-8.78,25.11,5.34,36.95,11.16,139.11,68.45,263,159.8,383.55,256.09,10.41,8.32,20.74,16.75,35.01,28.27-4.04-43.51-4.31-81.02-43.83-103.31-16.5-9.31-29.79-24.26-44.77-36.34-131.84-106.34-273.28-197.49-426.88-269.3-6.41-3-13.77-10.56-20.88-4.03-5.42,4.97-1.7,13.09-.52,19.83,10.1,57.58,19.4,115.33,30.44,172.73,37.76,196.21,100.02,384.18,190.98,562.36,4.79,9.38,7.8,20.32,20.5,23.17,25.32,5.7,50.54,11.86,81.52,19.19h-.01ZM492.91,2386.37c106.16-7.92,211.43-4.14,316.81,3.76,187.8,14.07,367.23,60.18,539.3,136.04,191.15,84.27,361.96,200.91,525.13,329.79,133.12,105.15,257.02,221.03,386.03,330.96,31.45,26.8,63.14,53.33,94.72,79.98-125.31-127.89-242.09-263.53-371.74-386.8-138.27-131.47-290.38-243-459.35-331.92-210.67-110.86-434.72-171.8-672.28-181.76-120.18-5.04-240.01,2.95-358.62,19.95h0ZM2659.76,3246.44c39.64-25.42,76.26-54.22,110.85-85.53,124.51-112.67,249.52-224.75,380.49-329.99,167.16-134.31,344.34-251.52,545.97-328.82,219.91-84.31,447.64-122.19,682.63-120.47,39.59.29,79.07,2.64,121.91,5.26-3.95-2-4.58-2.54-5.27-2.64-160.01-22.73-320.49-26.52-481.25-10-188.69,19.39-364.9,80.49-532.72,166.15-153.28,78.24-288.38,182.94-417.42,295.97-129.51,113.44-243.68,241.99-363.11,365.38-14.23,14.7-28.06,29.78-42.07,44.68h-.01ZM4296.95,2532.77c-6.1,2.67-12.15,5.44-18.29,8.01-196.67,82.22-374.47,197.17-550,316.25-165.1,112-328.77,226.28-504.99,320.87-205.42,110.26-419.39,197.04-649.69,239.84-17.36,3.23-34.54,7.81-51.45,12.92-7.67,2.32-18.6,5.12-17.5,15.49,1.28,12.09,13.04,8.46,20.69,8.56,31.55.44,62.98-.12,94.52-3.82,203.7-23.85,395.41-83.48,573.99-185.56,163.71-93.58,314.69-205.44,464.79-318.66,160.6-121.13,321.65-241.49,498.18-339.22,46.19-25.57,93.66-48.61,139.74-74.66v-.02ZM3941.33,2222.66c8.61-3.52,12.86-4.9,16.79-6.91,75.68-38.63,154.8-68.26,236.89-89.9,12.85-3.39,29.88-15.35,38.45-4.58,7.28,9.15-8.38,22.66-15.05,33.41-27.99,45.12-56.83,89.71-84.96,134.74-3.07,4.92-11.57,10.7-3.26,17.4,8.94,7.21,53.25-.63,59.79-10.45,58.53-87.81,123.4-170.97,186.56-255.39,3.1-4.14,9.06-8.27,6.47-13.82-3.4-7.27-11.12-3.89-16.55-2.92-39.34,7.07-78.71,14.06-117.81,22.31-95.41,20.13-182.69,63.13-272.86,97.99-4.89,1.89-5.54,6.93-7.24,11.13-8.35,20.64-16.75,41.26-27.2,66.97l-.02.02ZM603.88,2022.28c6.35,9.31,8.98,13.87,12.27,17.89,52.24,63.86,101.15,130.23,148.99,197.41,13.86,19.46,27.54,39.05,41.73,58.26,7.83,10.6,48.49,19.18,54.81,10.13,9.97-14.26-6.39-23.07-12.61-32.79-29.88-46.71-63.88-90.76-90.68-139.48-3.05-5.54-10.42-11.91-4.57-18.41,4.61-5.12,11.57-.02,17.32,1.57,81.05,22.44,160.13,50.39,237.09,84.34,12.21,5.39,24.54,10.52,40.91,17.52-6.71-16.54-12.39-27.62-15.72-39.36-7.14-25.15-23.68-38.49-47.63-48.28-78.58-32.13-158.53-59.74-240.88-80.38-44.65-11.2-89.36-22.1-141.03-28.41h0ZM1787.96,2037.41c32.09,194.12,84.87,381.13,179.97,554.38-68.07-182.31-131.53-366.11-179.97-554.38ZM2996.83,2648.66c95.93-172.45,159.85-355.78,188.15-551.22-43.98,190.11-106.55,373.9-188.15,551.22Z"/>
  <path class="cls-1" d="M2077.18,3577.45c-15.36,11.27-28.11,9.17-40.02,9-77.77-1.09-155.61-5.55-233.29-3.54-111.55,2.88-223.23,8.23-331.37,40.71-28.21,8.47-55.3,19.35-80.13,35.21-46.16,29.5-46.3,55.19-.29,84.06,41.11,25.8,87.12,39.14,134.09,48.3,142.11,27.72,285.61,34.18,429.96,25.52,36.89-2.21,73.8-3.93,110.72-5.71,7.97-.38,15.97-.06,23.95-.06.1,1.95.19,3.91.29,5.86-40.62,6.98-81.25,13.97-124.93,21.48,12.73,13.45,27.38,20.99,41.68,28.8,80.6,43.99,168.56,62.64,258.57,72.47,58.88,6.43,118.11,12.76,177.23,13.24,101.65.83,203.09-5.37,303.38-24.38,84.19-15.96,166.91-36.82,245.9-70.67,11.71-5.02,22.73-11.66,37.37-19.28-40.21-13.64-79.57-13.31-118.8-30.59,12.76-3.82,21.35-1.86,29.81-.28,75.48,14.14,151.42,14.49,227.79,9.45,84.5-5.57,168.95-10.92,252.59-24.99,60.89-10.24,120.93-23.81,178.24-47.27,19.69-8.06,44.94-15.22,46.01-40.18,1.13-26.32-23.98-35.62-44.2-44.62-67.49-30.04-139.73-42.65-211.89-54.59-125.41-20.77-251.68-33.66-378.79-37.78-7.24-.23-15.56,1.43-24.04-10.27,37.55-1.29,72.2-4.28,106.74-3.29,73.07,2.11,146.2,3.76,219.04,11.3,114.96,11.9,229.79,24.22,339.01,65.5,23.95,9.05,46.35,20.98,64.19,40,23.73,25.3,24.63,54.81,1.9,80.93-24.62,28.29-57.42,43.61-91.82,55.76-74.75,26.4-152.87,35.11-231.15,41.9-66.82,5.79-133.87,6-200.92,5.22-30.87-.36-61.5-2.92-91.9-7.95-16.97-2.81-30.08.38-43.53,13.42-55.46,53.71-122.35,90.7-191.25,123.77-108.9,52.27-223.86,85.81-344.74,86.4-206.86,1.01-392.79-62.14-548.79-201.09-28.01-24.95-55.26-29.63-89.89-26.82-157.03,12.75-313.87,14.7-468.94-19.82-40.84-9.09-79.94-23.33-113.1-50.15-44.16-35.71-43.9-75.68.03-111.23,37.57-30.4,82.38-44.78,127.72-57.19,82.84-22.67,167.58-31.75,253.36-34.34,126.38-3.81,252.49,4.86,378.75,6.03,3.7.03,7.38.81,15.47,1.74v.02Z"/>
</svg>