<?xml version="1.0" encoding="UTF-8"?>
<svg id="Layer_1" xmlns="http://www.w3.org/2000/svg" version="1.1" viewBox="0 0 1883.9 1148">
  <!-- Generator: Adobe Illustrator 29.6.1, SVG Export Plug-In . SVG Version: 2.1.1 Build 9)  -->
  <defs>
    <style>
      .st0 {
        fill: #fff;
      }
    </style>
  </defs>
  <path class="st0" d="M1171.8,721.5s0,0,0,0,0,0,0,0h0c0,0-.1,0,0,0h0Z"/>
  <path class="st0" d="M1826.4,698.2c-3.5-1.9-6.9-4-10.2-6.4-1.7-1.2-3.3-2.4-4.9-3.6l-4.8-3.8c-6.3-5.1-12.1-10.8-17.5-16.9-5.5-6.1-10.7-12.5-15.9-18.9-5.2-6.4-10.6-12.9-16.5-18.9-5.8-6-12.3-11.7-19.5-16.2-3.6-2.2-7.4-4.2-11.3-5.8-3.9-1.6-8-2.9-12.1-3.8-8.2-1.8-16.6-2.3-24.9-2-4,.3-7.9.3-12.1.7-4.1.3-8.2.9-12.4,1.7-8.2,1.6-16.3,4.1-24.1,7.7-7.8,3.5-15.1,8-21.9,12.9-6.9,4.9-13.3,10.3-19.6,15.3-6.3,5.1-12.6,10-19,14.3-6.4,4.2-13,7.8-19.9,10.4-13.8,5.3-28.7,6.8-43.7,6.1-7.4-.4-14.7-1.5-21.6-3.6l-2.6-.7c-.9-.3-1.8-.6-2.8-.9l-2.8-.9c-.8-.3-1.7-.6-2.5-.9-3.3-1.3-6.5-2.9-9.6-4.7-6.2-3.6-12.1-8.2-17.8-13.3-5.8-5.2-11.5-11-17.5-16.8-6.1-5.8-12.5-11.7-19.6-17-7.1-5.3-14.8-10-23-13.7-8.2-3.7-16.8-6.3-25.5-7.8l-3.3-.5-3.3-.4c-1.1-.2-2.1-.2-3.1-.3l-1.5-.2-1.4-.2-1.6-.2-1.6-.2c-1.1,0-2.2-.2-3.3-.3-2.2-.1-4.4-.2-6.7-.2-4.5,0-9.1.3-13.8,1.1-4.6.8-9.3,1.9-13.8,3.6-4.5,1.7-8.9,3.8-13,6.2-4.1,2.5-8,5.3-11.6,8.3-7.2,6-13.3,12.7-19,19.4-5.6,6.7-10.8,13.4-15.8,19.8-5.1,6.4-10,12.5-15.2,18.1-5.2,5.5-10.5,10.5-16.1,14.6-2.8,2-5.7,3.9-8.6,5.5-.7.4-1.5.8-2.2,1.2-.8.4-1.5.7-2.3,1-1.5.7-3,1.4-4.5,1.9l-1.1.4-1.7.6-2.9,1.1c-1.6.6-3.1,1.1-4.7,1.6-3.2,1-6.4,1.6-9.6,2.1h-.5c0,0-.8.3-.8.3l-3.5.9c-1.1.2-2,.4-3,.6-1.9.3-3.8.4-5.5.4-.4,0-.9,0-1.3,0h-.6s-1.5-.1-1.5-.1h-2s-.4,0-.4,0c-.3,0-.6,0-.9,0-1.4-.1-2.8-.4-4.1-.9-.6-.2-1.3-.5-1.9-.8-.3-.2-.6-.4-.9-.5-.2,0-.3-.2-.5-.3l-.7-.4-1.8-1c-.2-.1-.6-.4-.8-.5-.6-.4-1.2-.9-1.8-1.4-2.4-2.1-5-5.2-7.5-9-2.5-3.7-5-8.1-7.1-12.3-2.2-4.4-4.2-9.1-6.2-13.9s-3.9-9.8-5.7-14.8c-1.8-5-3.6-10.2-5.3-15.3-7-20.7-13.6-42.1-20.6-63.5-1.8-5.4-3.6-10.7-5.4-16-.9-2.6-1.8-5.3-2.8-8l-2.9-8.1c-1.9-5.4-3.8-10.8-5.8-16.1-2.1-5.3-4.2-10.6-6.4-15.9-2.2-5.3-4.3-10.6-6.8-15.9l-3.7-8c-1.2-2.6-2.6-5.2-3.9-7.7-5.1-10.3-11.3-21.4-18.6-31.2l-1.2-1.7-1.3-1.8c-1-1.3-2-2.6-3.1-4-2.1-2.6-4.5-5.3-7.3-8-2.8-2.7-6.1-5.4-10.5-7.8-2.2-1.2-4.7-2.3-7.7-3.1-.7-.2-1.5-.4-2.2-.5-.8-.1-1.6-.3-2.4-.4-1.6-.2-3.3-.2-5-.2-1.7.1-3.5.3-5.1.7-.8.2-1.6.4-2.5.6-.4.1-.8.2-1.2.4l-1.2.4c-1.5.6-3,1.3-4.3,2l-1,.6c-.3.2-.5.3-.8.5l-1.5,1c-1,.7-1.9,1.4-2.9,2.1-1,.8-2,1.7-2.9,2.6-1.8,1.7-3.3,3.5-4.6,5.2-2.7,3.4-4.6,6.7-6.4,9.9-1.7,3.2-3.2,6.3-4.5,9.3s-2.5,6-3.6,9c-1.1,3-2,5.9-3,8.8-.9,2.9-1.7,5.8-2.6,8.7-.8,2.9-1.6,5.7-2.3,8.6-3,11.4-5.5,22.7-7.8,34-4.5,22.5-8.3,44.9-11.7,67.3-3.4,22.4-6.6,44.7-9.5,67l-8.8,66.7-8.7,66.7c-3,22.2-5.9,44.3-9.1,66.3-3.2,22-6.5,44-10,65.9-1.8,10.9-3.7,21.8-5.6,32.6-1,5.4-2,10.8-3,16.2-1,5.4-2.1,10.8-3.2,16.1-4.4,21.4-9.3,42.6-15.4,62.5-1.5,5-3.1,9.9-4.8,14.5l-1.4,3.8c-.4-1.4-.8-2.8-1.1-4.3l-.9-3.7-.9-3.7c-.5-2.5-1.2-5.1-1.7-7.7-1.1-5.2-2-10.4-3-15.7-.9-5.3-1.7-10.7-2.6-16.1-.8-5.4-1.8-10.7-2.5-16.1l-2.2-16.3-2.2-16.4-1.9-16.5-1.9-16.5c-.3-2.7-.6-5.5-.9-8.3l-.8-8.3-6.4-66.5c-7.6-89-14.2-178.3-20.8-267.8l-2.5-33.5-2.6-33.6-5.2-67.2-5.8-67.3-2.9-33.6c-1.1-11.2-2.1-22.4-3.2-33.6-1.1-11.2-2.3-22.5-3.5-33.7-1.2-11.2-2.4-22.5-3.8-33.7-2.7-22.5-5.6-45-8.9-67.5l-2.7-17-2.9-17-3.4-17.1-1.7-8.6c-.6-2.9-1.1-5.7-1.8-8.6-1.3-5.7-2.8-11.5-4.3-17.4-1.6-5.8-3.4-11.9-5.7-18.2l-3.7-9.4c-1.4-3.2-2.9-6.5-4.9-10-.5-.9-1-1.7-1.5-2.7l-.8-1.3-.9-1.4c-.6-.9-1.3-1.9-2-2.8l-1.1-1.5c-.4-.5-.8-1-1.2-1.5-1.7-2-3.7-4.2-6.3-6.3-2.6-2.1-5.8-4.4-10-6.1l-1.2-.5-1.4-.4c-4-1.2-8.8-1.6-13.4-1-4.6.6-8.8,2.2-12.1,4.1-3.4,1.9-5.9,4-8,6-2.1,2-3.7,3.9-5.2,5.8-2.8,3.7-4.8,7-6.4,10.2-.8,1.6-1.6,3.1-2.3,4.6-.7,1.5-1.3,3.1-2,4.6-.7,1.6-1.1,3-1.7,4.4l-.8,2.2-.7,2.1c-.9,2.7-1.7,5.4-2.5,8.1-1.5,5.3-2.9,10.5-4.2,15.7-2.5,10.3-4.5,20.5-6.4,30.6-1.9,10.1-3.5,20.2-5,30.2l-2.2,15.1-2,15c-.7,5-1.2,10-1.8,15l-1.7,15c-2.4,20-4.3,39.9-6.2,59.8-3.7,39.8-6.9,79.5-9.8,119.2-1.5,19.9-2.9,39.7-4.2,59.5l-3.9,59.5-15.4,237.7c-2.6,39.5-5.5,79-8.8,118.4-1.6,19.7-3.4,39.3-5.4,58.9-2,19.5-4.1,39.1-6.8,58.3-.7,4.8-1.4,9.5-2.1,14.3-.7,4.8-1.6,9.4-2.3,14.1-.4,2.3-.9,4.7-1.3,7l-.7,3.5-.7,3.3c-.4,1.9-.9,3.8-1.3,5.7,0,0,0-.1,0-.2l-1.2-3.1c-.4-1-.8-2.2-1.1-3.3-1.5-4.4-3-8.8-4.4-13.3-2.8-9.1-5.5-18.3-8-27.7-2.5-9.4-5-18.8-7.3-28.3-2.3-9.5-4.7-18.9-6.8-28.5-2.2-9.6-4.5-19.2-6.5-28.8l-3.2-14.4-3.1-14.5-12.3-58.1c-8.2-38.8-16.1-77.5-25.1-116.4l-3.3-14.6c-.5-2.4-1.2-4.9-1.8-7.3l-1.8-7.3-3.7-14.6c-.6-2.4-1.2-4.9-1.9-7.3l-2-7.3c-2.7-9.7-5.7-19.5-9-29.1-1.7-4.8-3.4-9.7-5.4-14.6-1-2.5-2-4.7-3-7.1l-1.5-3.5c-.5-1.2-1.1-2.4-1.7-3.6-1.2-2.4-2.3-4.8-3.5-7.2l-1.9-3.3c-.3-.5-.6-1.1-1-1.8l-1.1-1.8-1.1-1.8-1.1-1.7-2.2-3.4c-.8-1.1-1.5-2.3-2.3-3.4l-2.3-3.1c-.8-1.1-1.7-2.2-2.7-3.4-.9-1-1.9-2.2-2.9-3.2-2-2.1-4.2-4.2-6.6-6.1-4.8-3.8-10.7-6.9-17.1-8.2-6.4-1.4-12.8-1-18.5.4-1.4.4-2.8.7-4.2,1.2l-2,.7-1,.4-.5.2h-.3c-.2.2-.4.3-.6.3l-.7.2-2,.7c-1.3.5-2.6,1-3.8,1.6-10,4.5-18.7,11.2-26.2,18.5-3.8,3.7-7.2,7.6-10.5,11.6l-4.6,5.8c-1.6,2-3.1,4.1-4.6,6.2-5.9,8.4-11.1,17.1-15.9,25.9-4.8,8.8-9.2,17.7-13.5,26.5l-6.5,13.1c-2.2,4.4-4.4,8.6-6.6,12.9-4.5,8.4-9.2,16.6-14.5,23.9-1.3,1.9-2.8,3.5-4.1,5.3-.7.9-1.4,1.7-2.1,2.5l-1.1,1.2-1.2,1.3-2.4,2.5c-.8.8-1.6,1.5-2.3,2.3-1.6,1.5-3.2,2.8-4.9,4.1-3.4,2.5-7,4.7-10.7,6.3-1.9.8-3.8,1.5-5.8,2-1,.3-1.8.5-3.2.8-.6.1-1.2.3-1.8.5l-1.6.4c-8.1,2-16.9,2.3-25.1.8h-.4c0,0,0,0,0,0-9.1-.9-17.4-4.2-25.1-10l-1.6-1.1c-.5-.4-.9-.7-1.4-1.1l-2.7-2.2c-1.8-1.5-3.5-3.2-5.2-5-3.3-3.6-6.4-7.5-9.4-11.6-11.8-16.6-20.9-35.7-30.7-54.3-9.7-18.7-19.7-37.5-31.7-54.8-3.1-4.3-6.1-8.5-9.3-12.7-1.6-2.1-3.3-4.1-5-6.1-1.7-1.9-3.4-3.9-5.1-5.9-.8-1-1.7-1.9-2.6-2.9l-2.7-2.8c-.9-.9-1.8-1.9-2.7-2.8-.9-.9-1.9-1.8-2.8-2.7s-1.9-1.7-2.9-2.6c-1-.8-2-1.6-3-2.5-1.9-1.7-3.9-3.4-5.9-5,1.9,1.8,3.8,3.5,5.6,5.4.9.9,1.9,1.8,2.8,2.6.9.9,1.8,1.8,2.8,2.7.9.9,1.8,1.9,2.7,2.8.9,1,1.7,2,2.5,3l2.5,3c.8,1,1.7,2,2.4,3,1.6,2.1,3.2,4.1,4.8,6.2,1.6,2,3.1,4.1,4.6,6.3,3,4.2,5.8,8.7,8.6,13.1,5.6,8.8,10.4,18.1,15.2,27.4,4.7,9.4,9.2,18.8,13.6,28.5l6.6,14.4c2.2,4.8,4.4,9.6,6.8,14.4,4.6,9.6,9.7,19.1,15.5,28.2,2.9,4.5,6.1,9,9.7,13.2,1.8,2.1,3.6,4.1,5.7,6l3.1,2.8c.5.5,1.1,1,1.6,1.4l1.5,1.2c.9.8,2.1,1.7,3.2,2.5,1.1.8,2.3,1.6,3.4,2.4,2.4,1.5,4.8,2.9,7.3,4,4.9,2.3,10.2,3.8,15.5,4.6,4.9,1.2,10,1.7,15,1.8s10.1-.3,15.1-1.3c1.4-.3,2.3-.5,3.4-.7.9-.1,2.4-.5,3.6-.7,2.6-.6,5.1-1.3,7.5-2.3,4.9-1.8,9.6-4.3,13.9-7.3,2.2-1.5,4.2-3.1,6.2-4.8,1-.8,2-1.7,2.9-2.6l1.4-1.3,1.3-1.3,1.3-1.3,1.4-1.4c1-.9,1.8-1.9,2.6-2.9,1.7-1.9,3.5-3.9,5-5.9,6.4-8.1,11.8-16.7,16.8-25.3,10-17.2,18.8-34.8,28.4-51.1,4.8-8.1,9.9-16,15.4-23.2,1.4-1.8,2.8-3.6,4.2-5.3l4.6-5.3c2.9-3.4,6-6.6,9.2-9.5,6.4-5.8,13.2-10.5,20.4-13.5.9-.4,1.8-.7,2.7-1l1.3-.4,1-.3c.4-.1.7-.2,1.1-.4l.5-.2h.3c0,0,.6-.3.6-.3l1.3-.4c.9-.3,1.7-.5,2.5-.6,3.3-.7,6.3-.6,9,0,2.7.7,5.3,2.1,7.9,4.3,1.3,1.1,2.5,2.3,3.8,3.7.6.7,1.2,1.4,1.9,2.2.5.7,1.1,1.5,1.8,2.4l2,2.8c.6.9,1.1,1.8,1.7,2.8l1.7,2.8.8,1.4.7,1.4.7,1.4c.2.5.5.9.8,1.4l1.6,3.1,2.8,6.1c.5,1,.9,2,1.4,3.1l1.3,3.3,2.5,6.5c1.5,4.3,3,8.8,4.4,13.3,2.8,9.1,5.3,18.4,7.7,27.8l1.7,7.1c.6,2.4,1.1,4.8,1.6,7.1l3.2,14.3,1.6,7.2c.5,2.4,1.1,4.7,1.5,7.2l2.9,14.5c7.8,38.5,14.5,77.6,21.7,116.6l10.8,58.5,2.8,14.6,2.9,14.7c1.9,9.9,3.9,19.6,5.9,29.3,1.9,9.7,4.1,19.5,6.3,29.3,2.1,9.9,4.4,19.6,6.8,29.4,2.4,9.8,5,19.6,7.8,29.4,1.4,4.9,3,9.9,4.6,14.8.4,1.2.8,2.5,1.2,3.7l1.4,3.8c.9,2.5,1.8,5,2.8,7.6,1,2.6,2.1,5.1,3.3,7.8,1.2,2.6,2.5,5.3,4.1,8.1l.6,1.1.6,1c.4.7.9,1.4,1.4,2.2.5.8,1.1,1.7,1.9,2.6.4.5.8,1,1.4,1.7.6.7.9,1,1.3,1.4,1.7,1.7,3.6,3.5,6.5,5.3,1.4.9,3.1,1.7,5,2.4,1.9.7,4.1,1.2,6.5,1.4,2.3.2,4.8,0,7-.5,2.2-.5,4.6-1.5,6.1-2.3,3.3-1.7,6.1-4.1,8.1-6.3,2-2.2,3.5-4.4,4.6-6.3l.7-1.2.6-1.1c.4-.8.8-1.5,1.2-2.3,1.5-3,2.7-5.9,3.8-8.8.5-1.4,1-2.8,1.5-4.3.5-1.5.9-2.7,1.3-4.1,1.6-5.3,3-10.5,4.2-15.6l.9-3.9.9-3.8c.5-2.5,1.1-5.1,1.6-7.6.9-5,2-10.1,2.8-15.2.8-5,1.7-10,2.5-15.1,3.2-20,5.8-39.9,8.2-59.8,2.4-19.9,4.5-39.8,6.5-59.6,4-39.7,7.5-79.4,10.8-119s6.4-79.3,9.5-118.9l9.2-118.7,4.6-59.3c1.5-19.8,3.1-39.5,4.8-59.3,3.4-39.4,6.8-78.8,10.9-118,2-19.6,4.1-39.2,6.6-58.6l1.8-14.6c.6-4.9,1.2-9.7,1.9-14.5l2-14.5,2.2-14.3c1.5-9.6,3.1-19,4.9-28.4,1.8-9.3,3.7-18.6,5.9-27.4.1-.4.2-.9.3-1.3,1.1,4.4,2.2,8.8,3.3,13.4.6,2.6,1.1,5.2,1.6,7.8l1.5,7.9,3.1,15.8,2.7,16.1,2.5,16.2c3.2,21.8,6,43.7,8.5,65.8,1.3,11,2.4,22.1,3.6,33.1,1.2,11.1,2.4,22.1,3.4,33.2,1.1,11.1,2.1,22.2,3.2,33.3l2.9,33.4,5.7,66.8,5.2,67,2.6,33.5,2.5,33.5c6.7,89.4,13.6,179,21.8,268.7l6.9,67.4.9,8.4c.3,2.8.6,5.6.9,8.4l2.1,16.9,2.1,16.9,2.4,16.9,2.4,17c.9,5.7,1.9,11.4,2.8,17,1,5.7,1.9,11.3,2.9,17.1,1.1,5.8,2.2,11.5,3.5,17.3.6,2.9,1.3,5.7,2,8.7l1.1,4.4,1.1,4.4c1.6,5.9,3.3,11.9,5.4,18.1,1.1,3.1,2.2,6.2,3.6,9.5,1.4,3.3,2.9,6.6,5,10.3l.8,1.4.8,1.4c.7,1.1,1.5,2.3,2.3,3.5s1.7,2.2,2.5,3.2l.6.7.7.8c.6.6,1.1,1.2,1.7,1.7,2.3,2.2,5.2,4.6,9,6.6,1.9,1,4.1,1.9,6.4,2.6,2.4.7,4.9,1.1,7.4,1.2,5.1.2,10-.9,13.8-2.5,1-.4,1.9-.8,2.8-1.3.9-.5,1.5-.8,2.8-1.6.6-.3,1-.7,1.5-1,.5-.4.9-.7,1.2-.9.6-.5,1.2-1,1.8-1.4,4.4-3.8,7.2-7.3,9.6-10.6,2.4-3.3,4.3-6.5,6.1-9.6,1.7-3.1,3.3-6.2,4.7-9.2.7-1.6,1.5-3.3,2.2-4.9l1.8-4.4,3.2-8.7c2.1-5.8,3.9-11.5,5.6-17.2,6.7-22.8,11.6-45.3,16-67.8,2.2-11.2,4.2-22.5,6.1-33.7,1.9-11.2,3.7-22.4,5.4-33.6,3.4-22.4,6.5-44.8,9.4-67.1,2.9-22.4,5.7-44.7,8.3-67l7.8-66.8,7.7-66.8c2.6-22.2,5.3-44.3,8.3-66.3,1.5-11,3.1-21.9,4.7-32.8,1.7-10.9,3.4-21.7,5.4-32.4,2-10.7,4.1-21.3,6.6-31.5.6-2.5,1.2-5.1,1.9-7.6.7-2.5,1.3-5,2.1-7.4.8-2.3,1.5-4.8,2.2-7.1.8-2.3,1.6-4.5,2.4-6.6.8-2.1,1.7-4,2.6-5.7.5-1.1,1.1-2,1.6-2.8,1,.9,2,2,3.1,3.3.7.7,1.3,1.6,2,2.5l1.2,1.6,1.2,1.6,1.2,1.5,1,1.4c.7.9,1.4,1.9,2,2.9,1.3,2,2.6,4,3.9,6.1,1.3,2.1,2.6,4.2,3.8,6.4.6,1,1.2,2.2,1.8,3.4l1.9,3.5c1.2,2.3,2.5,4.6,3.7,7l3.4,7c2.3,4.6,4.4,9.6,6.6,14.5,2.2,4.9,4.2,9.9,6.4,14.8,2,5,3.9,10.1,5.9,15.1l2.9,7.6c1,2.5,2,5,2.9,7.7,1.9,5.2,3.8,10.4,5.7,15.5,7.4,20.8,14.4,41.8,22.2,63.1,1.9,5.3,3.9,10.7,6.1,16,2.1,5.4,4.3,10.7,6.7,16.1,2.4,5.4,4.9,10.8,7.8,16.2,3,5.6,6.1,10.7,9.9,16,3.8,5.2,8.1,10.6,14,15.4,1.4,1.2,3,2.3,4.6,3.4.8.5,1.6,1,2.6,1.6.8.5.9.5,1.7.9l1,.6c.4.2.8.4,1.3.7l2.6,1.3c1.8.8,3.6,1.5,5.5,2.1,3.7,1.2,7.6,1.8,11.4,2,1,0,2,0,3.1,0h1.5c.1,0,0,0,0,0,.1,0,.3,0,.4,0h1.3c.9,0,1.8,0,2.6,0,3.5,0,6.9-.5,10.1-1.1,1.6-.3,3.2-.7,4.7-1.1l3.9-1.1c4.3-.8,8.4-1.9,12.5-3.3,2.2-.7,4.4-1.6,6.6-2.5l.9-.4.6-.3c.4-.2.8-.4,1.1-.5l1.1-.4,1.7-.7c2.2-.9,4.3-2,6.5-3,1.1-.5,2.1-1,3.2-1.6,1.1-.6,2.1-1.1,3.1-1.7,4.1-2.4,8-5.1,11.7-8,7.4-5.8,13.9-12.3,19.8-19,5.9-6.7,11.2-13.7,16.2-20.4,5-6.8,9.8-13.4,14.7-19.6,4.8-6.1,9.8-11.8,15-16.4s10.7-8.3,16.7-10.7c3-1.2,6.1-2.1,9.3-2.8,3.2-.7,6.5-1,9.9-1.1,1.7,0,3.5,0,5.2,0,.9,0,1.8,0,2.7.1h1.3c0,0,1.4.2,1.4.2h1.5c0,.1,1.4.2,1.4.2.9,0,2,.1,2.8.2l2.7.2,2.7.3c7,1,13.9,2.8,20.5,5.4,6.6,2.6,12.9,6.2,19,10.4,6.1,4.2,12,9.2,18,14.6,6,5.4,12.1,11.1,18.7,16.6,6.6,5.5,13.9,10.8,21.8,14.9,4,2.1,8.1,3.9,12.3,5.4,1.1.4,2.1.7,3.2,1.1l2.9.9c1,.3,1.9.6,3,.9l3.2.8c8.6,2.2,17.1,3,25.6,3.2,2.1,0,4.2,0,6.3,0l6.3-.4c2.1,0,4.2-.4,6.3-.6,1.1-.1,2.1-.2,3.2-.4l3.2-.5c8.4-1.4,16.8-3.8,24.8-7.3,8-3.4,15.5-7.9,22.4-13,6.9-5.1,13.3-10.6,19.5-16,6.2-5.5,12.2-10.9,18.3-15.7,6.2-4.9,12.6-9.1,19.4-12.6,6.8-3.5,13.9-6.1,21.3-7.9,3.7-.9,7.4-1.6,11.2-2.1,3.7-.5,7.8-.7,11.7-1.2,7.6-.7,15.2-.6,22.7.7,7.4,1.2,14.6,3.8,21.3,7.5,6.7,3.7,12.9,8.6,18.8,14.1,5.9,5.5,11.4,11.5,17,17.6,11,12.2,22.3,24.7,35.7,34.4l5,3.6c1.7,1.2,3.4,2.3,5.1,3.4,3.5,2.1,7.1,4.1,10.7,5.8,7.3,3.4,15.1,5.9,22.9,7.3-7.8-1.9-15.3-4.8-22.3-8.7h-.1Z"/>
</svg>