<?xml version="1.0" encoding="UTF-8"?>
<svg id="Layer_1" data-name="Layer 1" xmlns="http://www.w3.org/2000/svg" xmlns:xlink="http://www.w3.org/1999/xlink" viewBox="0 0 170.64 118.8">
  <defs>
    <style>
      .cls-1 {
        fill: #fff;
        filter: url(#outer-glow-1);
      }
    </style>
    <filter id="outer-glow-1" x="0" y="0" width="170.64" height="118.8" filterUnits="userSpaceOnUse">
      <feOffset dx="0" dy="0"/>
      <feGaussianBlur result="blur" stdDeviation="2.16"/>
      <feFlood flood-color="#cdc3e1" flood-opacity=".5"/>
      <feComposite in2="blur" operator="in"/>
      <feComposite in="SourceGraphic"/>
    </filter>
  </defs>
  <path class="cls-1" d="M139.59,62.63c1.4-9.79,4.36-25.39,0-33.99-7.81.93-22.81,6.16-30.42,9.95-2.21-9.13-17.14-31.94-23.81-31.89-6.67-.04-21.6,22.76-23.81,31.89-7.61-3.79-22.61-9.02-30.42-9.95-4.35,8.6-1.4,24.2,0,33.99-3.78,1.41-23.6,3.92-24.44,7.57,9.93,28.37,50.16,55.51,77.82,34.78-25.88-24.94-28.3-67.01-1.13-91.47.63-.55,1.17-.85,1.98-.89.8.02,1.34.34,1.98.89,27.17,24.46,24.74,66.54-1.13,91.47,27.66,20.73,67.89-6.41,77.82-34.78-.84-3.65-20.66-6.16-24.44-7.57ZM14.57,73.12c.4-1.94,16.62-5.51,19.02-4.04,7.3,13.68,22.06,30.29,37.98,35.53-19.62,9.55-49.02-13.41-57-31.49ZM69.57,97.59c-22.43-11.69-39.29-35.5-34.04-61.58,1.91-1.41,21.86,5.81,23.55,8.58-1.85,21.78,1.27,33.35,10.5,52.99ZM111.68,44.6c1.69-2.78,21.64-9.99,23.55-8.58,5.25,26.08-11.62,49.88-34.04,61.58,9.23-19.64,12.35-31.21,10.5-52.99ZM99.17,104.61c15.93-5.23,30.69-21.84,37.98-35.53,2.4-1.47,18.62,2.09,19.02,4.04-7.99,18.08-37.39,41.04-57,31.49Z"/>
</svg>