<?xml version="1.0" encoding="UTF-8"?>
<svg id="Layer_1" data-name="Layer 1" xmlns="http://www.w3.org/2000/svg" viewBox="0 0 483.08 483.19">
  <defs>
    <style>
      .cls-1 {
        fill: none;
      }

      .cls-2 {
        fill: #231f20;
      }
    </style>
  </defs>
  <g>
    <path d="M109.54,275.87h0c0-.3.09-.6.25-.85l31.06-49.17c.36-.59.77-1.21,1.23-1.84.78-1.06.04-2.56-1.27-2.56h-28.15c-.88,0-1.6-.72-1.6-1.6v-12.18c0-.88.72-1.6,1.6-1.6h58.31c.88,0,1.6.72,1.6,1.6h0c0,.3-.08.6-.24.85l-31.33,50c-.23.34-.46.68-.72,1.04-.75,1.06,0,2.53,1.29,2.53h28.71c.88,0,1.6.72,1.6,1.6v12.18c0,.88-.72,1.6-1.6,1.6h-59.14c-.88,0-1.6-.72-1.6-1.6Z"/>
    <path d="M193.4,301.24v-.59c0-.29.08-.57.23-.82l55.42-92.36c.61-1.05,1.28-2.06,1.99-3.04.77-1.07.05-2.56-1.27-2.56h-51.44c-.88,0-1.6-.72-1.6-1.6v-18.33c0-.88.72-1.6,1.6-1.6h92.17c.88,0,1.6.72,1.6,1.6v.59c0,.29-.08.57-.23.82l-55.42,92.36c-.62,1.05-1.28,2.06-1.99,3.04-.77,1.07-.05,2.56,1.27,2.56h54.77c.88,0,1.6.72,1.6,1.6v18.33c0,.88-.72,1.6-1.6,1.6h-95.5c-.88,0-1.6-.72-1.6-1.6Z"/>
    <path d="M314.29,275.87h0c0-.3.09-.6.25-.85l31.06-49.17c.36-.59.77-1.21,1.23-1.84.78-1.06.04-2.56-1.27-2.56h-28.15c-.88,0-1.6-.72-1.6-1.6v-12.18c0-.88.72-1.6,1.6-1.6h58.31c.88,0,1.6.72,1.6,1.6h0c0,.3-.08.6-.24.85l-31.33,50c-.23.34-.46.68-.72,1.04-.75,1.06,0,2.53,1.29,2.53h28.72c.88,0,1.6.72,1.6,1.6v12.18c0,.88-.72,1.6-1.6,1.6h-59.14c-.88,0-1.6-.72-1.6-1.6Z"/>
  </g>
  <g>
    <path class="cls-1" d="M394.12,88.96c-40.77-40.77-94.98-63.23-152.64-63.23s-111.87,22.45-152.64,63.23c-84.17,84.17-84.17,221.11,0,305.28,40.77,40.77,94.98,63.23,152.64,63.23s111.87-22.45,152.64-63.23c40.77-40.77,63.23-94.98,63.23-152.64s-22.45-111.87-63.23-152.64Z"/>
    <path class="cls-2" d="M412.32,70.76C366.69,25.13,306.02,0,241.48,0S116.28,25.13,70.65,70.76c-94.2,94.2-94.2,247.47,0,341.67,45.63,45.63,106.3,70.76,170.84,70.76s125.2-25.13,170.84-70.76c45.63-45.63,70.76-106.3,70.76-170.84s-25.13-125.2-70.76-170.83ZM394.12,394.24c-40.77,40.77-94.98,63.23-152.64,63.23s-111.87-22.45-152.64-63.23C4.68,310.07,4.68,173.12,88.84,88.96c40.77-40.77,94.98-63.23,152.64-63.23s111.87,22.45,152.64,63.23c40.77,40.77,63.23,94.98,63.23,152.64s-22.45,111.87-63.23,152.64Z"/>
  </g>
  <g>
    <rect x="234.62" y="417.08" width="10.06" height="32.98" rx="3.91" ry="3.91" transform="translate(476.43 868.72) rotate(-179.62)"/>
    <rect x="138.89" y="390.75" width="10.06" height="32.98" rx="3.91" ry="3.91" transform="translate(62.13 831.35) rotate(-149.62)"/>
    <rect x="69.15" y="320.08" width="10.06" height="32.98" rx="3.91" ry="3.91" transform="translate(-181.74 567.41) rotate(-119.62)"/>
    <rect x="44.09" y="224.01" width="10.06" height="32.98" rx="3.91" ry="3.91" transform="translate(-191.7 288.03) rotate(-89.62)"/>
    <rect x="70.42" y="128.28" width="10.06" height="32.98" rx="3.91" ry="3.91" transform="translate(-87.6 136.65) rotate(-59.62)"/>
    <rect x="141.09" y="58.54" width="10.06" height="32.98" rx="3.91" ry="3.91" transform="translate(-17.99 82.03) rotate(-29.62)"/>
    <rect x="237.16" y="33.48" width="10.06" height="32.98" rx="3.91" ry="3.91" transform="translate(.34 -1.6) rotate(.38)"/>
    <rect x="332.89" y="59.81" width="10.06" height="32.98" rx="3.91" ry="3.91" transform="translate(84.98 -160.42) rotate(30.38)"/>
    <rect x="402.63" y="130.48" width="10.06" height="32.98" rx="3.91" ry="3.91" transform="translate(333.93 -280.06) rotate(60.38)"/>
    <rect x="427.69" y="226.55" width="10.06" height="32.98" rx="3.91" ry="3.91" transform="translate(678.62 -188.06) rotate(90.38)"/>
    <rect x="401.36" y="322.28" width="10.06" height="32.98" rx="3.91" ry="3.91" transform="translate(904.16 159.5) rotate(120.38)"/>
    <rect x="330.69" y="392.02" width="10.06" height="32.98" rx="3.91" ry="3.91" transform="translate(829.48 597.7) rotate(150.38)"/>
  </g>
</svg>